<svg width="159" height="163" viewBox="0 0 159 163" fill="none" xmlns="http://www.w3.org/2000/svg">
<mask id="path-1-inside-1" fill="white">
<path fill-rule="evenodd" clip-rule="evenodd" d="M85.3285 3.01589C82.1735 -0.311854 76.8726 -0.311855 73.7175 3.01589L2.84004 77.7733C-1.9933 82.8712 1.62058 91.2775 8.64554 91.2775H17.8231V152.819C17.8231 158.342 22.3003 162.819 27.8231 162.819H62.9997V103.754H97.1627V162.819H132.339C137.862 162.819 142.339 158.342 142.339 152.819V91.2775H150.401C157.425 91.2775 161.039 82.8712 156.206 77.7733L85.3285 3.01589Z"/>
</mask>
<path d="M73.7175 3.01589L66.4607 -3.86436L66.4607 -3.86436L73.7175 3.01589ZM85.3285 3.01589L92.5854 -3.86436L92.5854 -3.86436L85.3285 3.01589ZM2.84004 77.7733L-4.41684 70.8931L-4.41684 70.8931L2.84004 77.7733ZM17.8231 91.2775H27.8231C27.8231 85.7547 23.346 81.2775 17.8231 81.2775L17.8231 91.2775ZM62.9997 162.819V172.819C68.5226 172.819 72.9997 168.342 72.9997 162.819H62.9997ZM62.9997 103.754V93.7543C57.4769 93.7543 52.9997 98.2315 52.9997 103.754H62.9997ZM97.1627 103.754H107.163C107.163 98.2315 102.686 93.7543 97.1627 93.7543V103.754ZM97.1627 162.819H87.1627C87.1627 168.342 91.6399 172.819 97.1627 172.819V162.819ZM142.339 91.2775V81.2775C136.816 81.2775 132.339 85.7547 132.339 91.2775H142.339ZM156.206 77.7733L148.949 84.6536L148.949 84.6536L156.206 77.7733ZM80.9744 9.89614C80.1857 10.7281 78.8604 10.7281 78.0717 9.89614L92.5854 -3.86436C85.4866 -11.3518 73.5595 -11.3518 66.4607 -3.86436L80.9744 9.89614ZM10.0969 84.6536L80.9744 9.89613L66.4607 -3.86436L-4.41684 70.8931L10.0969 84.6536ZM8.64554 81.2775C8.95171 81.2775 9.39257 81.3888 9.79408 81.6672C10.1526 81.9159 10.3662 82.216 10.4829 82.4876C10.5997 82.7592 10.6705 83.1207 10.6043 83.5519C10.5302 84.0349 10.3076 84.4314 10.0969 84.6536L-4.41684 70.8931C-15.2918 82.3634 -7.16063 101.278 8.64554 101.278V81.2775ZM17.8231 81.2775H8.64554V101.278H17.8231V81.2775ZM7.82311 91.2775V152.819H27.8231V91.2775H7.82311ZM7.82311 152.819C7.82311 163.865 16.7774 172.819 27.8231 172.819V152.819H27.8231H7.82311ZM27.8231 172.819H62.9997V152.819H27.8231V172.819ZM72.9997 162.819V103.754H52.9997V162.819H72.9997ZM62.9997 113.754H97.1627V93.7543H62.9997V113.754ZM87.1627 103.754V162.819H107.163V103.754H87.1627ZM97.1627 172.819H132.339V152.819H97.1627V172.819ZM132.339 172.819C143.385 172.819 152.339 163.865 152.339 152.819H132.339V172.819ZM152.339 152.819V91.2775H132.339V152.819H152.339ZM150.401 81.2775H142.339V101.278H150.401V81.2775ZM148.949 84.6536C148.739 84.4314 148.516 84.0349 148.442 83.552C148.376 83.1207 148.446 82.7592 148.563 82.4876C148.68 82.216 148.894 81.9159 149.252 81.6672C149.654 81.3888 150.094 81.2775 150.401 81.2775V101.278C166.207 101.278 174.338 82.3634 163.463 70.8931L148.949 84.6536ZM78.0717 9.89613L148.949 84.6536L163.463 70.8931L92.5854 -3.86436L78.0717 9.89613Z" fill="black" mask="url(#path-1-inside-1)"/>
</svg>
