<svg width="224" height="160" viewBox="0 0 224 160" fill="none" xmlns="http://www.w3.org/2000/svg">
<rect x="32.3643" y="5.06741" width="151.889" height="95.3174" rx="15" fill="white" stroke="black" stroke-width="10"/>
<path d="M40.6592 100.16H177.203C182.762 100.16 187.866 103.235 190.464 108.15L203.319 132.468C208.6 142.457 201.357 154.478 190.058 154.478H30.4509C19.7301 154.478 12.4705 143.557 16.6202 133.672L26.8284 109.354C29.1667 103.784 34.6182 100.16 40.6592 100.16Z" fill="#E68383" stroke="black" stroke-width="10"/>
<path d="M43.832 118.184H174.795" stroke="black" stroke-width="10" stroke-linecap="round" stroke-dasharray="1 20"/>
<path d="M34.832 137.184H187.969" stroke="black" stroke-width="10" stroke-linecap="round" stroke-dasharray="1 20"/>
<path d="M91.3227 62.7427C92.1893 63.2974 92.6227 64.06 92.6227 65.0307C92.6227 65.7934 92.3453 66.4347 91.7907 66.9547C91.236 67.44 90.612 67.6827 89.9187 67.6827C89.4333 67.6827 89 67.5614 88.6187 67.3187L69.4307 55.8267C68.4947 55.2374 68.0267 54.44 68.0267 53.4347C68.0267 52.5334 68.4947 51.7534 69.4307 51.0947L88.6187 39.5507C89.104 39.3427 89.5547 39.2387 89.9707 39.2387C90.6987 39.2387 91.3227 39.4814 91.8427 39.9667C92.3627 40.4174 92.6227 41.0067 92.6227 41.7347C92.6227 42.7747 92.1893 43.5547 91.3227 44.0747L75.6707 53.3827L91.3227 62.7427ZM112.324 32.4787C112.532 31.9934 112.861 31.612 113.312 31.3347C113.763 31.0574 114.248 30.9187 114.768 30.9187C115.496 30.9187 116.103 31.1787 116.588 31.6987C117.108 32.184 117.368 32.7907 117.368 33.5187C117.368 33.9 117.299 34.2814 117.16 34.6627L101.508 73.8187C101.3 74.3387 100.971 74.72 100.52 74.9627C100.069 75.24 99.5842 75.3787 99.0642 75.3787C98.3362 75.3787 97.7122 75.1187 97.1922 74.5987C96.6722 74.1134 96.4122 73.5067 96.4122 72.7787C96.4122 72.432 96.4988 72.0507 96.6722 71.6347L112.324 32.4787ZM144.031 51.0947C144.967 51.7534 145.435 52.5334 145.435 53.4347C145.435 54.44 144.967 55.2374 144.031 55.8267L124.843 67.3187C124.462 67.5614 124.028 67.6827 123.543 67.6827C122.85 67.6827 122.226 67.44 121.671 66.9547C121.116 66.4347 120.839 65.7934 120.839 65.0307C120.839 64.06 121.272 63.2974 122.139 62.7427L137.791 53.3827L122.139 44.0747C121.272 43.5547 120.839 42.7747 120.839 41.7347C120.839 41.0067 121.099 40.4174 121.619 39.9667C122.139 39.4814 122.763 39.2387 123.491 39.2387C123.907 39.2387 124.358 39.3427 124.843 39.5507L144.031 51.0947Z" fill="black"/>
</svg>
