<svg width="159" height="144" viewBox="0 0 159 144" fill="none" xmlns="http://www.w3.org/2000/svg">
<mask id="path-1-inside-1" fill="white">
<path fill-rule="evenodd" clip-rule="evenodd" d="M85.3285 3.01589C82.1735 -0.311854 76.8726 -0.311855 73.7175 3.01589L2.84004 77.7733C-1.9933 82.8712 1.62058 91.2775 8.64554 91.2775H17.8235V133.819C17.8235 139.342 22.3006 143.819 27.8235 143.819H63.0001V98.8219H97.1631V143.819H132.34C137.863 143.819 142.34 139.342 142.34 133.819V91.2775H150.401C157.425 91.2775 161.039 82.8712 156.206 77.7733L85.3285 3.01589Z"/>
</mask>
<path fill-rule="evenodd" clip-rule="evenodd" d="M85.3285 3.01589C82.1735 -0.311854 76.8726 -0.311855 73.7175 3.01589L2.84004 77.7733C-1.9933 82.8712 1.62058 91.2775 8.64554 91.2775H17.8235V133.819C17.8235 139.342 22.3006 143.819 27.8235 143.819H63.0001V98.8219H97.1631V143.819H132.34C137.863 143.819 142.34 139.342 142.34 133.819V91.2775H150.401C157.425 91.2775 161.039 82.8712 156.206 77.7733L85.3285 3.01589Z" fill="#E78383"/>
<path d="M73.7175 3.01589L80.9744 9.89613L80.9744 9.89613L73.7175 3.01589ZM85.3285 3.01589L78.0717 9.89613L78.0717 9.89613L85.3285 3.01589ZM2.84004 77.7733L-4.41684 70.8931L-4.41684 70.8931L2.84004 77.7733ZM17.8235 91.2775H27.8235C27.8235 85.7547 23.3463 81.2775 17.8235 81.2775L17.8235 91.2775ZM63.0001 143.819V153.819C68.523 153.819 73.0001 149.342 73.0001 143.819H63.0001ZM63.0001 98.8219V88.8219C57.4773 88.8219 53.0001 93.2991 53.0001 98.8219H63.0001ZM97.1631 98.8219H107.163C107.163 93.2991 102.686 88.8219 97.1631 88.8219V98.8219ZM97.1631 143.819H87.1631C87.1631 149.342 91.6402 153.819 97.1631 153.819V143.819ZM142.34 91.2775V81.2775C136.817 81.2775 132.34 85.7547 132.34 91.2775H142.34ZM156.206 77.7733L163.463 70.8931L163.463 70.8931L156.206 77.7733ZM80.9744 9.89613C80.1857 10.7281 78.8604 10.7281 78.0717 9.89613L92.5854 -3.86435C85.4866 -11.3518 73.5595 -11.3518 66.4607 -3.86436L80.9744 9.89613ZM10.0969 84.6536L80.9744 9.89613L66.4607 -3.86436L-4.41684 70.8931L10.0969 84.6536ZM8.64554 81.2775C8.95171 81.2775 9.39257 81.3888 9.79408 81.6672C10.1526 81.9159 10.3662 82.216 10.4829 82.4876C10.5997 82.7592 10.6705 83.1207 10.6043 83.5519C10.5302 84.0349 10.3076 84.4314 10.0969 84.6536L-4.41684 70.8931C-15.2918 82.3634 -7.16063 101.278 8.64554 101.278V81.2775ZM17.8235 81.2775H8.64554V101.278H17.8235V81.2775ZM7.82349 91.2775V133.819H27.8235V91.2775H7.82349ZM7.82349 133.819C7.82349 144.865 16.7778 153.819 27.8235 153.819V133.819H27.8235H7.82349ZM27.8235 153.819H63.0001V133.819H27.8235V153.819ZM73.0001 143.819V98.8219H53.0001V143.819H73.0001ZM63.0001 108.822H97.1631V88.8219H63.0001V108.822ZM87.1631 98.8219V143.819H107.163V98.8219H87.1631ZM97.1631 153.819H132.34V133.819H97.1631V153.819ZM132.34 153.819C143.385 153.819 152.34 144.865 152.34 133.819H132.34V153.819ZM152.34 133.819V91.2775H132.34V133.819H152.34ZM150.401 81.2775H142.34V101.278H150.401V81.2775ZM148.949 84.6535C148.738 84.4314 148.516 84.0349 148.442 83.5519C148.376 83.1207 148.446 82.7592 148.563 82.4876C148.68 82.216 148.894 81.9159 149.252 81.6672C149.653 81.3888 150.094 81.2775 150.401 81.2775V101.278C166.207 101.278 174.338 82.3634 163.463 70.8931L148.949 84.6535ZM78.0717 9.89613L148.949 84.6536L163.463 70.8931L92.5854 -3.86436L78.0717 9.89613Z" fill="black" mask="url(#path-1-inside-1)"/>
</svg>
