<svg width="570" height="295" viewBox="0 0 570 295" fill="none" xmlns="http://www.w3.org/2000/svg">
<path fill-rule="evenodd" clip-rule="evenodd" d="M170.482 42.5849L135.303 16.8086C105.505 -5.02487 64.9499 -4.86259 35.3278 17.2086C-4.99259 47.2509 -10.1242 105.723 24.347 142.329L50.3907 169.986C51.745 174.52 53.9227 178.841 56.9239 182.951C61.9744 189.907 68.1136 194.417 75.3414 196.482L159.481 285.832C169.851 296.845 187.4 296.702 197.59 285.524L294.397 179.328C295.478 182.268 297.75 184.12 301.213 184.885C307.004 186.23 314.314 181.151 323.142 169.648C321.621 173.467 320.548 177.462 319.922 181.633C318.867 188.605 320.127 194.465 323.701 199.211C327.1 203.781 331.963 206.418 338.291 207.121C344.912 207.883 351.826 206.301 359.033 202.375C367.119 197.98 374.561 191.125 381.358 181.809C382.705 180.051 384.434 177.59 386.543 174.426C387.305 173.43 388.125 172.199 389.004 170.734C393.691 163.586 399.785 153.889 407.285 141.643C410.274 137.131 413.32 132.355 416.426 127.316C429.785 130.305 432.715 141.32 425.215 160.363C421.934 168.742 420.117 174.66 419.766 178.117C418.945 186.437 422.139 192.326 429.346 195.783C437.959 199.943 447.774 196.955 458.789 186.818C463.594 182.365 469.717 174.953 477.158 164.582C477.959 163.499 478.135 162.775 477.686 162.411C482.093 157.958 486.66 152.91 491.385 147.268C492.733 147.736 494.402 147.971 496.395 147.971C498.797 147.912 500.584 147.443 501.756 146.564C499.529 151.603 498.27 154.475 497.977 155.178C494.813 163.264 493.084 169.094 492.791 172.668C492.322 179.875 495.604 184.182 502.635 185.588C505.74 186.174 510.076 184.152 515.643 179.523C518.011 177.538 520.11 175.584 521.94 173.661C523.181 177.97 525.531 181.009 528.99 182.775C535.025 185.881 541.852 185.676 549.469 182.16C556.324 178.996 562.623 173.781 568.365 166.516C568.893 165.812 569.156 165.168 569.156 164.582C569.156 164.055 568.922 163.674 568.453 163.439C568.043 163.205 567.545 163.146 566.959 163.264C566.373 163.439 565.875 163.791 565.465 164.318C561.422 169.416 556.207 173.693 549.82 177.15C543.141 180.783 538.102 181.809 534.703 180.226C532.594 179.23 531.422 177.414 531.188 174.777C531.012 172.844 531.363 169.973 532.242 166.164C541.676 159.484 549.791 153.273 556.588 147.531C561.451 143.43 564.498 139.123 565.729 134.611C567.018 130.217 566.139 126.994 563.092 124.943C560.807 123.361 557.994 122.658 554.654 122.834C551.373 123.01 547.945 123.976 544.371 125.734C536.227 129.719 529.928 136.105 525.475 144.894C522.545 150.578 521.022 157.17 520.904 164.67C520.886 166.116 520.936 167.484 521.055 168.773C519.171 170.913 516.722 173.296 513.709 175.92C509.197 179.846 506.443 181.428 505.447 180.666C502.752 178.615 504.275 171.584 510.018 159.572C511.717 155.998 514.031 151.545 516.961 146.213C519.715 141.115 521.238 138.244 521.531 137.6C523.875 132.56 523.289 128.342 519.774 124.943C518.484 123.654 517.107 122.834 515.643 122.482C514.178 122.072 513.24 122.248 512.83 123.01C509.49 128.928 507.088 132.824 505.623 134.699C502.049 139.269 498.797 141.144 495.867 140.324C502.84 133.41 507.205 126.32 508.963 119.055C509.783 115.539 509.783 112.492 508.963 109.914C508.143 107.219 506.473 105.256 503.953 104.025C500.555 102.268 497.039 102.385 493.406 104.377C490.008 106.193 487.195 109.24 484.969 113.518C482.625 117.912 481.395 122.658 481.277 127.756C481.16 133.381 482.479 138.537 485.233 143.225C482.537 149.143 476.092 157.785 465.897 169.152C465.369 169.797 465.076 170.353 465.018 170.822C464.959 171.291 465.106 171.613 465.457 171.789C465.5 171.81 465.543 171.83 465.586 171.847L465.469 171.965C461.191 176.242 457.705 179.523 455.01 181.809C446.279 189.133 439.746 191.184 435.41 187.961C432.891 186.027 432.275 183.01 433.565 178.908C434.092 177.443 435.029 175.246 436.377 172.316C438.252 168.156 439.483 165.402 440.068 164.055C448.799 143.488 445.488 129.719 430.137 122.746C439.277 119.523 446.074 115.949 450.527 112.023C453.281 109.621 460.137 101.887 471.094 88.8202C478.477 80.0312 484.014 74.0253 487.705 70.8027C495.85 63.537 503.145 60.3437 509.59 61.2226C512.227 61.5741 513.574 61.3691 513.633 60.6073C513.691 59.787 512.842 59.2597 511.084 59.0253C502.94 57.9706 494.268 59.3476 485.068 63.1562C476.572 66.6718 469.541 71.3886 463.975 77.3066C461.455 79.9433 458.291 83.5468 454.483 88.1171C450.44 93.039 447.568 96.4081 445.869 98.2245C439.131 105.607 431.924 110.969 424.248 114.309C427.061 109.387 430.225 103.732 433.74 97.3456C436.904 91.662 438.399 88.9667 438.223 89.2597C445.664 77.1894 446.807 66.789 441.65 58.0585C436.787 49.8554 428.818 46.3105 417.744 47.4238C419.912 37.2284 420.469 27.4433 419.414 18.0683C419.238 16.7206 418.858 16.1347 418.272 16.3105C417.568 16.5448 417.012 17.7753 416.602 20.0019C415.488 26.2714 412.559 35.9101 407.813 48.9179C390.718 52.5148 376.304 57.0594 364.57 62.5518C363.03 59.5423 360.368 57.6051 356.584 56.7402C354.002 56.112 351.211 56.0658 348.213 56.6016C343.268 42.2255 334.274 29.0266 321.382 18.8536C292.34 -4.0627 251.578 -4.79047 221.737 17.0745L186.921 42.5849C182.028 46.1703 175.376 46.1703 170.482 42.5849ZM350.911 66.3519C350.213 63.0571 349.313 59.8002 348.213 56.6016C346.177 56.9655 344.046 57.5976 341.818 58.498C329.748 63.4784 316.945 75.3144 303.41 94.0058C297.141 102.619 288.85 115.949 278.537 133.996C262.893 154.562 253.078 167.043 249.094 171.437C248.215 172.434 247.717 173.459 247.6 174.514C247.577 174.721 247.572 174.897 247.585 175.043C247.166 175.418 246.736 175.798 246.293 176.184C241.84 180.051 239.145 181.603 238.207 180.842C235.512 178.85 236.772 171.906 241.986 160.012C243.568 156.32 245.649 151.896 248.227 146.74C251.098 141.115 252.563 138.273 252.621 138.215C253.969 135.285 253.881 132.502 252.357 129.865C251.127 127.697 249.135 125.881 246.381 124.416C243.92 123.068 241.723 122.394 239.789 122.394C237.797 122.336 237.123 123.039 237.768 124.504C239.701 128.547 238.354 133.967 233.725 140.764C231.116 144.618 228.689 148.153 226.443 151.37C217.247 154.359 206.67 153.987 194.713 150.256C193.6 149.846 192.633 150.021 191.813 150.783C190.992 151.545 191.168 152.043 192.34 152.277C194.449 152.687 195.328 155.412 194.977 160.451C194.684 165.49 193.307 170.09 190.846 174.25C187.33 180.344 183.961 185.178 180.738 188.752C176.051 193.967 172.213 195.871 169.225 194.465C166.94 193.351 167.115 188.898 169.752 181.105C170.323 179.361 170.911 177.704 171.516 176.136C174.003 173.836 176.085 171.596 177.762 169.416C178.406 168.654 178.318 167.775 177.498 166.779C177.139 166.309 176.747 166.087 176.322 166.113C176.475 165.862 176.629 165.615 176.783 165.373C181.002 158.635 185.191 153.01 189.352 148.498C189.059 149.201 190.289 147.912 193.043 144.631C195.856 141.291 197.203 139.621 197.086 139.621C223.219 122.16 239.625 110.734 246.305 105.344C252.34 100.48 256.471 95.4706 258.697 90.3144C260.69 85.6855 260.924 81.5839 259.4 78.0097C257.877 74.5527 255.065 72.3261 250.963 71.33C246.679 70.3019 241.839 70.8606 236.442 73.006C239.606 67.7758 240.407 63.4086 238.846 59.9042C237.732 57.4433 235.418 55.9784 231.902 55.5097C228.387 55.0995 224.256 55.832 219.51 57.707C212.153 60.5721 204.277 66.8483 195.884 76.5356C196.584 74.8644 196.934 73.0999 196.934 71.2421C196.992 65.8515 194.473 61.0761 189.375 56.9159C185.156 53.4589 180.059 50.998 174.082 49.5331C163.945 47.0136 153.428 47.0429 142.529 49.621C130.928 52.3749 120.586 57.6484 111.504 65.4413C101.25 60.5195 92.7247 52.3749 85.9278 41.0077C83.877 37.6093 82.5294 36.4667 81.8848 37.58C81.2989 38.6347 81.4747 40.3046 82.4122 42.5898C86.4551 52.7265 93.6036 62.3652 103.857 71.5058C100.342 74.7284 96.7676 79.4159 93.1348 85.5683C88.6231 93.3027 85.4884 101.242 83.7305 109.387C63.0469 116.476 51.4747 131.096 49.0137 153.244C48.3511 159.114 48.81 164.694 50.3907 169.986L75.3414 196.482C77.673 197.148 80.1178 197.56 82.6759 197.717C96.8555 198.713 110.215 194.787 122.754 185.939C132.591 179.03 141.346 169.575 149.018 157.574C150.191 156.307 150.953 155.537 151.307 155.266C143.69 172.785 145.184 182.6 155.789 184.709C156.851 184.917 158.065 184.807 159.431 184.379C159.476 186.265 159.694 187.928 160.084 189.367C161.139 193.41 163.629 196.486 167.555 198.596C173.297 201.76 179.947 201.174 187.506 196.838C195.065 192.385 201.275 185.441 206.139 176.008C208.248 171.848 209.186 168.185 208.951 165.021C208.834 163.322 209.889 161.887 212.115 160.715C213.58 159.894 216.246 158.957 220.113 157.902C220.854 157.692 221.572 157.482 222.268 157.271C217.466 163.961 213.697 168.83 210.961 171.877C210.024 172.932 209.496 174.016 209.379 175.129C209.262 176.184 209.613 176.447 210.434 175.92C214.301 173.225 218.373 169.416 222.65 164.494C227.279 159.221 230.004 156.262 230.824 155.617C223.031 173.547 224.555 183.566 235.395 185.676C238.441 186.262 242.719 184.299 248.227 179.787C252.211 176.447 255.404 173.225 257.807 170.119C258.451 169.299 258.363 168.391 257.543 167.394C257.481 167.319 257.419 167.251 257.356 167.189C259.676 164.889 262.429 162.116 265.617 158.869C264.152 162.385 261.311 169.65 257.092 180.666C256.565 182.131 256.887 183.273 258.059 184.094C259.055 184.797 260.549 185.178 262.541 185.236C264.358 185.295 266.057 185.031 267.639 184.445C269.338 183.859 270.363 183.039 270.715 181.984C271.242 180.461 274.172 173.459 279.504 160.978C280.5 158.635 281.994 156.965 283.986 155.969C285.744 155.09 287.619 154.826 289.611 155.178C291.486 155.529 292.981 156.32 294.094 157.551C295.266 158.898 295.676 160.422 295.324 162.121C293.977 168.918 293.449 173.664 293.742 176.359C293.851 177.449 294.069 178.438 294.397 179.328L303.792 169.021C302.964 171.731 302.456 173.65 302.268 174.777C301.916 177.414 302.473 179.201 303.938 180.139C304.934 180.842 307.6 179.289 311.936 175.48C315.451 172.434 318.176 169.738 320.109 167.394C321.164 166.164 322.072 166.018 322.834 166.955C323.337 167.566 323.575 168.132 323.55 168.654C327.654 158.934 334.706 150.369 344.707 142.961C356.016 134.523 368.525 129.016 382.236 126.437C384.99 125.969 386.484 125.998 386.719 126.525C386.895 127.053 385.84 127.873 383.555 128.986C370.137 135.607 359.531 142.726 351.738 150.344C341.66 160.246 334.453 172.375 330.117 186.73C328.125 193.41 329.854 197.277 335.303 198.332C340.108 199.328 345.469 198.098 351.387 194.641C355.723 192.121 380.772 153.508 426.533 78.8007C431.279 71.0663 433.125 65.2655 432.07 61.3984C430.723 56.5937 424.629 56.7695 413.789 61.9257C406.172 79.6796 395.01 94.5331 380.303 106.486C367.822 116.564 356.748 121.926 347.08 122.57C345.63 122.676 344.224 122.673 342.863 122.56C344.61 119.329 346.122 116.012 347.401 112.631C349.226 111.687 351.199 110.488 353.32 109.035C374.59 94.5038 390.703 79.9433 401.66 65.3534C384.492 71.8573 372.481 76.9257 365.625 80.5585C362.956 81.9487 360.384 83.4164 357.91 84.9616C356.321 86.6748 354.502 88.3702 352.451 90.0479C352.987 83.2648 352.684 76.4403 351.555 69.7421C354.238 67.9819 357.132 66.2965 360.237 64.6859C359.697 62.8952 357.512 62.9712 353.684 64.914C352.762 65.3674 351.837 65.8467 350.911 66.3519ZM350.911 66.3519C351.149 67.4778 351.364 68.6081 351.555 69.7421C339.573 77.6047 331.812 86.9599 328.273 97.8077C319.486 104.718 309.382 112.064 297.961 119.846C316.348 93.4036 333.998 75.5724 350.911 66.3519ZM352.451 90.0479C352.306 90.1661 352.161 90.2842 352.014 90.4023C347.608 93.9618 343.05 97.4551 338.34 100.882C337.909 101.34 337.482 101.802 337.061 102.268C334.775 104.787 333.457 107.16 333.106 109.387C332.754 111.555 333.34 113.166 334.863 114.221C337.684 116.027 341.863 115.498 347.401 112.631C350.168 105.317 351.845 97.7088 352.451 90.0479ZM342.863 122.56C338.946 122.237 335.401 121.009 332.227 118.879C328.377 116.261 326.371 113.081 326.208 109.339C320.208 113.349 313.985 117.261 307.541 121.076C310.178 120.607 312.58 121.457 314.748 123.625C316.858 125.793 317.854 128.4 317.736 131.447C317.678 134.904 316.037 137.98 312.815 140.676C309.006 143.957 303.352 146.301 295.852 147.707C300.305 148.469 303.293 150.549 304.816 153.947C306.34 157.287 306.223 161.594 304.465 166.867C304.221 167.634 303.997 168.352 303.792 169.021L331.223 138.93C335.862 133.841 339.738 128.339 342.863 122.56ZM184.717 76.7792C177.627 79.2988 167.9 80.1191 155.537 79.2402C144.111 78.3613 133.77 76.3105 124.512 73.0878C131.484 66.9941 140.684 63.1855 152.109 61.662C162.539 60.2558 172.207 60.9882 181.113 63.8593C187.5 65.9101 190.811 68.2245 191.045 70.8027C191.279 73.1464 189.17 75.1386 184.717 76.7792ZM133.301 129.953C131.953 132.121 129.463 133.439 125.83 133.908C122.432 134.26 118.623 133.85 114.404 132.678C104.619 129.865 98.7012 125.266 96.6505 118.879C99.0528 116.769 102.744 115.539 107.725 115.187C112.295 114.836 116.924 115.275 121.611 116.506C126.475 117.736 130.02 119.494 132.246 121.779C134.766 124.299 135.117 127.023 133.301 129.953ZM187.631 123.542C180.001 130.922 174.778 135.784 171.961 138.127C158.426 163.264 153.943 177.209 158.514 179.963C158.774 180.122 159.135 180.147 159.595 180.038C159.733 178.51 159.955 176.873 160.26 175.129C161.373 168.684 165.387 160.07 172.301 149.289C178.041 139.26 183.151 130.678 187.631 123.542ZM103.066 184.182C114.799 181.116 124.894 176.144 133.35 169.264C136.578 165.169 144.526 154.76 157.195 138.039C168.897 115.097 179.868 96.961 190.11 83.631C189.369 84.205 188.567 84.7628 187.705 85.3046C182.607 88.5273 176.924 90.4902 170.654 91.1933C163.096 92.1308 154.014 91.7499 143.408 90.0507C132.1 88.2929 122.578 85.5683 114.844 81.8769C106.524 87.1503 100.693 95.5878 97.3536 107.189C105.088 106.076 113.936 107.277 123.897 110.793C135.908 115.07 141.123 121.193 139.541 129.162C138.721 133.205 136.318 136.193 132.334 138.127C128.584 140.002 123.984 140.676 118.535 140.148C106.113 138.976 95.5079 133.41 86.7188 123.449C77.168 129.953 70.8106 137.365 67.6466 145.685C64.8341 153.127 64.8341 160.305 67.6466 167.219C70.2833 173.898 74.8243 178.85 81.2696 182.072C88.0079 185.529 95.2735 186.232 103.066 184.182ZM230.232 69.4843C204.627 97.6093 186.58 116.418 176.092 125.91C196.248 98.0781 212.391 78.2148 224.52 66.3202C227.742 63.0976 230.232 62.0429 231.99 63.1562C232.693 63.5663 232.928 64.328 232.693 65.4413C232.4 66.6132 231.58 67.9609 230.232 69.4843ZM191.9 134.963C218.736 116.682 238.365 100.773 250.787 87.2382C253.775 83.8984 255.065 81.3202 254.654 79.5038C254.186 77.5702 251.959 77.5995 247.975 79.5917C230.104 88.4394 211.412 106.896 191.9 134.963ZM296.994 129.865C292.658 132.912 289.172 137.248 286.535 142.873C293.566 142.228 299.25 140.324 303.586 137.16C305.52 135.812 306.779 134.406 307.365 132.941C307.951 131.418 307.746 130.1 306.75 128.986C304.641 126.467 301.389 126.76 296.994 129.865ZM499.91 120.285C503.895 112.492 504.774 107.922 502.547 106.574C501.551 105.93 500.174 106.809 498.416 109.211C496.717 111.379 495.076 114.338 493.494 118.088C489.568 127.111 488.338 133.381 489.803 136.896C493.787 131.389 497.156 125.851 499.91 120.285ZM560.807 128.635C563.033 130.92 560.719 135.519 553.863 142.434C548.531 147.824 541.207 153.947 531.891 160.803C532.945 152.424 537.311 144.162 544.986 136.018C548.268 132.56 551.315 130.129 554.127 128.723C557.174 127.258 559.4 127.228 560.807 128.635ZM263.301 112.945C266.96 117.646 256.151 120.731 250.198 121.704C250.143 121.713 250.094 121.675 250.085 121.621C248.346 111.28 248.481 104.947 254.9 106.469C256.846 106.931 257.075 108.558 256.594 111.064C256.572 111.182 256.829 111.287 256.905 111.193C258.004 109.84 260.228 108.997 263.301 112.945Z" fill="#F2F2F2"/>
<path d="M135.303 16.8086L135.008 17.2119L135.303 16.8086ZM170.482 42.5849L170.778 42.1816L170.778 42.1816L170.482 42.5849ZM35.3278 17.2086L35.6265 17.6095L35.6265 17.6095L35.3278 17.2086ZM24.347 142.329L24.711 141.986L24.711 141.986L24.347 142.329ZM56.9239 182.951L57.3285 182.657L57.3277 182.656L56.9239 182.951ZM159.481 285.832L159.845 285.489L159.845 285.489L159.481 285.832ZM197.59 285.524L197.96 285.86L197.96 285.86L197.59 285.524ZM301.213 184.885L301.326 184.398L301.321 184.396L301.213 184.885ZM323.142 169.648L323.607 169.833C323.699 169.601 323.607 169.337 323.389 169.213C323.172 169.09 322.898 169.146 322.746 169.344L323.142 169.648ZM319.922 181.633L320.416 181.708L320.416 181.707L319.922 181.633ZM323.701 199.211L324.103 198.913L324.101 198.91L323.701 199.211ZM338.291 207.121L338.348 206.624L338.346 206.624L338.291 207.121ZM359.033 202.375L358.795 201.936L358.794 201.936L359.033 202.375ZM381.358 181.809L380.961 181.504L380.954 181.514L381.358 181.809ZM386.543 174.426L386.146 174.122C386.139 174.131 386.133 174.139 386.127 174.148L386.543 174.426ZM389.004 170.734L388.586 170.46C388.582 170.466 388.579 170.471 388.575 170.477L389.004 170.734ZM407.285 141.643L406.868 141.366C406.865 141.371 406.862 141.376 406.859 141.381L407.285 141.643ZM416.426 127.316L416.535 126.828C416.327 126.782 416.112 126.872 416 127.054L416.426 127.316ZM425.215 160.363L424.75 160.18L424.749 160.181L425.215 160.363ZM419.766 178.117L419.268 178.067L419.268 178.068L419.766 178.117ZM429.346 195.783L429.563 195.333L429.562 195.332L429.346 195.783ZM458.789 186.818L459.128 187.186L459.129 187.185L458.789 186.818ZM477.158 164.582L476.756 164.285L476.752 164.29L477.158 164.582ZM477.686 162.411L477.331 162.06C477.232 162.16 477.18 162.298 477.187 162.438C477.195 162.579 477.262 162.711 477.371 162.799L477.686 162.411ZM491.385 147.268L491.549 146.795C491.353 146.727 491.135 146.787 491.002 146.946L491.385 147.268ZM496.395 147.971V148.471L496.407 148.47L496.395 147.971ZM501.756 146.564L502.213 146.766C502.305 146.558 502.245 146.315 502.067 146.173C501.889 146.031 501.638 146.028 501.456 146.164L501.756 146.564ZM497.977 155.178L497.515 154.985L497.511 154.995L497.977 155.178ZM492.791 172.668L492.293 172.627L492.292 172.635L492.791 172.668ZM502.635 185.588L502.537 186.078L502.542 186.079L502.635 185.588ZM515.643 179.523L515.962 179.908L515.964 179.907L515.643 179.523ZM521.94 173.661L522.421 173.522C522.371 173.35 522.233 173.218 522.059 173.175C521.885 173.132 521.702 173.186 521.578 173.316L521.94 173.661ZM528.99 182.775L529.219 182.331L529.218 182.33L528.99 182.775ZM568.365 166.516L568.758 166.826L568.765 166.816L568.365 166.516ZM568.453 163.439L568.205 163.873C568.213 163.878 568.221 163.882 568.23 163.887L568.453 163.439ZM566.959 163.264L566.861 162.773C566.846 162.776 566.83 162.78 566.815 162.785L566.959 163.264ZM565.465 164.318L565.857 164.629L565.86 164.625L565.465 164.318ZM549.82 177.15L549.582 176.711L549.581 176.711L549.82 177.15ZM534.703 180.226L534.49 180.679L534.492 180.68L534.703 180.226ZM531.188 174.777L531.686 174.733L531.686 174.732L531.188 174.777ZM532.242 166.164L531.953 165.756C531.853 165.827 531.783 165.932 531.755 166.052L532.242 166.164ZM556.588 147.531L556.266 147.149L556.265 147.149L556.588 147.531ZM565.729 134.611L565.249 134.47L565.246 134.48L565.729 134.611ZM563.092 124.943L562.807 125.354L562.813 125.358L563.092 124.943ZM554.654 122.834L554.628 122.335L554.628 122.335L554.654 122.834ZM544.371 125.734L544.591 126.183L544.592 126.183L544.371 125.734ZM525.475 144.894L525.919 145.124L525.921 145.12L525.475 144.894ZM520.904 164.67L520.404 164.662L520.404 164.664L520.904 164.67ZM521.055 168.773L521.431 169.103C521.522 169 521.566 168.864 521.553 168.727L521.055 168.773ZM513.709 175.92L514.037 176.297L514.037 176.297L513.709 175.92ZM505.447 180.666L505.751 180.269L505.75 180.268L505.447 180.666ZM510.018 159.572L510.469 159.788L510.469 159.787L510.018 159.572ZM516.961 146.213L517.399 146.454L517.401 146.45L516.961 146.213ZM521.531 137.6L521.078 137.389L521.076 137.393L521.531 137.6ZM519.774 124.943L519.42 125.297L519.426 125.303L519.774 124.943ZM515.643 122.482L515.508 122.964C515.514 122.966 515.52 122.967 515.526 122.969L515.643 122.482ZM512.83 123.01L513.266 123.255L513.27 123.247L512.83 123.01ZM505.623 134.699L506.017 135.007L506.017 135.007L505.623 134.699ZM495.867 140.324L495.515 139.969C495.389 140.094 495.339 140.278 495.383 140.45C495.428 140.622 495.561 140.758 495.732 140.806L495.867 140.324ZM508.963 119.055L509.449 119.172L509.45 119.168L508.963 119.055ZM508.963 109.914L508.485 110.06L508.487 110.066L508.963 109.914ZM503.953 104.025L503.723 104.47L503.734 104.475L503.953 104.025ZM493.406 104.377L493.642 104.818L493.647 104.815L493.406 104.377ZM484.969 113.518L485.41 113.753L485.412 113.748L484.969 113.518ZM481.277 127.756L480.778 127.744L480.778 127.745L481.277 127.756ZM485.233 143.225L485.688 143.432C485.755 143.284 485.746 143.112 485.664 142.971L485.233 143.225ZM465.897 169.152L465.524 168.818C465.519 168.824 465.514 168.83 465.51 168.836L465.897 169.152ZM465.586 171.847L465.94 172.201C466.059 172.082 466.11 171.911 466.076 171.747C466.043 171.582 465.928 171.445 465.772 171.383L465.586 171.847ZM465.469 171.965L465.115 171.611L465.115 171.611L465.469 171.965ZM455.01 181.809L455.331 182.192L455.333 182.19L455.01 181.809ZM435.41 187.961L435.106 188.358L435.112 188.362L435.41 187.961ZM433.565 178.908L433.094 178.739C433.092 178.745 433.09 178.752 433.088 178.758L433.565 178.908ZM436.377 172.316L436.831 172.525L436.833 172.522L436.377 172.316ZM440.068 164.055L440.527 164.254L440.529 164.25L440.068 164.055ZM430.137 122.746L429.971 122.274C429.778 122.342 429.646 122.52 429.637 122.724C429.628 122.928 429.744 123.117 429.93 123.201L430.137 122.746ZM450.527 112.023L450.199 111.647L450.197 111.648L450.527 112.023ZM471.094 88.8202L470.711 88.4986L470.711 88.499L471.094 88.8202ZM487.705 70.8027L488.034 71.1793L488.038 71.1758L487.705 70.8027ZM509.59 61.2226L509.522 61.718L509.524 61.7182L509.59 61.2226ZM513.633 60.6073L514.131 60.6457L514.132 60.643L513.633 60.6073ZM511.084 59.0253L511.15 58.5297L511.148 58.5295L511.084 59.0253ZM485.068 63.1562L485.26 63.6182L485.26 63.6181L485.068 63.1562ZM463.975 77.3066L464.336 77.652L464.339 77.6491L463.975 77.3066ZM454.483 88.1171L454.098 87.797L454.096 87.7997L454.483 88.1171ZM445.869 98.2245L445.504 97.8829L445.5 97.8875L445.869 98.2245ZM424.248 114.309L423.814 114.06C423.707 114.247 423.732 114.482 423.876 114.642C424.02 114.803 424.25 114.853 424.448 114.767L424.248 114.309ZM433.74 97.3456L433.303 97.1024L433.302 97.1045L433.74 97.3456ZM438.223 89.2597L437.794 89.0024C437.653 89.2382 437.728 89.544 437.963 89.6869C438.198 89.8298 438.504 89.7562 438.648 89.5221L438.223 89.2597ZM441.65 58.0585L442.081 57.8042L442.081 57.8035L441.65 58.0585ZM417.744 47.4238L417.255 47.3198C417.222 47.4759 417.265 47.6386 417.372 47.7575C417.478 47.8764 417.635 47.9372 417.794 47.9212L417.744 47.4238ZM419.414 18.0683L419.911 18.0124L419.91 18.0036L419.414 18.0683ZM418.272 16.3105L418.128 15.8316C418.123 15.833 418.118 15.8345 418.113 15.8361L418.272 16.3105ZM416.602 20.0019L416.11 19.9113L416.109 19.9145L416.602 20.0019ZM407.813 48.9179L407.916 49.4072C408.084 49.3716 408.223 49.2515 408.282 49.0893L407.813 48.9179ZM364.57 62.5518L364.125 62.7795C364.247 63.0193 364.538 63.1188 364.782 63.0046L364.57 62.5518ZM356.584 56.7402L356.466 57.226L356.473 57.2276L356.584 56.7402ZM321.382 18.8536L321.691 18.4611L321.691 18.4611L321.382 18.8536ZM221.737 17.0745L221.442 16.6712L221.442 16.6712L221.737 17.0745ZM186.921 42.5849L187.217 42.9882L187.217 42.9882L186.921 42.5849ZM341.818 58.498L341.631 58.0344L341.628 58.0358L341.818 58.498ZM303.41 94.0058L303.814 94.3L303.815 94.299L303.41 94.0058ZM278.537 133.996L278.935 134.299C278.948 134.281 278.96 134.263 278.971 134.244L278.537 133.996ZM249.094 171.437L248.723 171.102L248.719 171.107L249.094 171.437ZM247.6 174.514L247.103 174.458L247.103 174.458L247.6 174.514ZM247.585 175.043L247.918 175.416C248.036 175.311 248.097 175.156 248.083 174.999L247.585 175.043ZM246.293 176.184L246.621 176.561L246.621 176.561L246.293 176.184ZM238.207 180.842L238.522 180.454C238.516 180.449 238.51 180.444 238.504 180.44L238.207 180.842ZM241.986 160.012L242.444 160.212L242.446 160.209L241.986 160.012ZM248.227 146.74L247.781 146.513L247.779 146.517L248.227 146.74ZM252.621 138.215L252.975 138.568C253.017 138.526 253.051 138.478 253.075 138.424L252.621 138.215ZM252.357 129.865L251.923 130.112L251.925 130.115L252.357 129.865ZM246.381 124.416L246.141 124.855L246.146 124.857L246.381 124.416ZM239.789 122.394L239.774 122.894C239.779 122.894 239.784 122.894 239.789 122.894V122.394ZM237.768 124.504L237.31 124.705C237.312 124.71 237.314 124.715 237.317 124.72L237.768 124.504ZM233.725 140.764L233.311 140.482L233.311 140.483L233.725 140.764ZM226.443 151.37L226.597 151.845C226.701 151.812 226.791 151.745 226.853 151.656L226.443 151.37ZM194.713 150.256L194.54 150.725C194.548 150.728 194.556 150.731 194.564 150.733L194.713 150.256ZM192.34 152.277L192.242 152.768L192.244 152.768L192.34 152.277ZM194.977 160.451L194.478 160.416L194.477 160.422L194.977 160.451ZM190.846 174.25L190.415 173.995L190.413 174L190.846 174.25ZM180.738 188.752L180.367 188.417L180.367 188.418L180.738 188.752ZM169.225 194.465L169.006 194.914L169.012 194.917L169.225 194.465ZM169.752 181.105L170.226 181.266L170.227 181.261L169.752 181.105ZM171.516 176.136L171.177 175.769C171.121 175.821 171.077 175.885 171.05 175.956L171.516 176.136ZM177.762 169.416L177.38 169.093C177.375 169.099 177.37 169.105 177.365 169.111L177.762 169.416ZM177.498 166.779L177.101 167.083C177.105 167.088 177.108 167.092 177.112 167.097L177.498 166.779ZM176.322 166.113L175.895 165.853C175.798 166.012 175.798 166.211 175.894 166.371C175.99 166.53 176.167 166.623 176.352 166.612L176.322 166.113ZM176.783 165.373L177.205 165.642L177.207 165.638L176.783 165.373ZM189.352 148.498L189.813 148.69C189.906 148.466 189.826 148.208 189.621 148.077C189.417 147.946 189.148 147.981 188.984 148.159L189.352 148.498ZM193.043 144.631L192.661 144.309L192.66 144.309L193.043 144.631ZM197.086 139.621L196.808 139.205C196.625 139.328 196.544 139.555 196.608 139.766C196.671 139.977 196.866 140.121 197.086 140.121V139.621ZM246.305 105.344L245.991 104.954L245.991 104.955L246.305 105.344ZM258.697 90.3144L259.156 90.5126L259.157 90.512L258.697 90.3144ZM259.4 78.0097L259.86 77.8136L259.858 77.8081L259.4 78.0097ZM250.963 71.33L251.081 70.8441L251.08 70.8438L250.963 71.33ZM236.442 73.006L236.014 72.7472C235.903 72.931 235.921 73.1652 236.06 73.3291C236.199 73.493 236.427 73.55 236.626 73.4706L236.442 73.006ZM238.846 59.9042L239.303 59.7007L239.301 59.6981L238.846 59.9042ZM231.902 55.5097L231.969 55.014L231.96 55.0131L231.902 55.5097ZM219.51 57.707L219.691 58.1729L219.694 58.172L219.51 57.707ZM195.884 76.5356L195.422 76.3424C195.328 76.569 195.411 76.831 195.62 76.9605C195.829 77.09 196.101 77.0487 196.262 76.863L195.884 76.5356ZM196.934 71.2421L196.434 71.2367V71.2421H196.934ZM189.375 56.9159L189.058 57.3027L189.059 57.3033L189.375 56.9159ZM174.082 49.5331L173.961 50.0184L173.963 50.0188L174.082 49.5331ZM142.529 49.621L142.414 49.1344L142.414 49.1345L142.529 49.621ZM111.504 65.4413L111.288 65.8921C111.466 65.9779 111.679 65.9499 111.83 65.8208L111.504 65.4413ZM85.9278 41.0077L86.3569 40.7511L86.3559 40.7494L85.9278 41.0077ZM81.8848 37.58L81.4521 37.3294L81.4478 37.3372L81.8848 37.58ZM82.4122 42.5898L82.8766 42.4045L82.8748 42.4L82.4122 42.5898ZM103.857 71.5058L104.195 71.8744C104.3 71.7788 104.358 71.6437 104.357 71.5023C104.356 71.361 104.296 71.2266 104.19 71.1325L103.857 71.5058ZM93.1348 85.5683L92.7043 85.3141L92.7029 85.3164L93.1348 85.5683ZM83.7305 109.387L83.8927 109.86C84.0584 109.803 84.1823 109.663 84.2193 109.492L83.7305 109.387ZM49.0137 153.244L49.5106 153.3L49.5107 153.299L49.0137 153.244ZM82.6759 197.717L82.7109 197.218L82.7065 197.218L82.6759 197.717ZM122.754 185.939L122.467 185.53L122.466 185.531L122.754 185.939ZM149.018 157.574L148.651 157.234C148.631 157.256 148.613 157.28 148.597 157.305L149.018 157.574ZM151.307 155.266L151.765 155.465C151.856 155.256 151.794 155.012 151.614 154.871C151.435 154.731 151.183 154.73 151.002 154.869L151.307 155.266ZM155.789 184.709L155.692 185.199L155.693 185.2L155.789 184.709ZM159.431 184.379L159.931 184.367C159.927 184.21 159.85 184.064 159.722 183.972C159.595 183.881 159.431 183.855 159.281 183.902L159.431 184.379ZM160.084 189.367L160.568 189.241L160.567 189.236L160.084 189.367ZM167.555 198.596L167.796 198.158L167.791 198.155L167.555 198.596ZM187.506 196.838L187.755 197.272L187.76 197.269L187.506 196.838ZM206.139 176.008L206.583 176.237L206.585 176.234L206.139 176.008ZM208.951 165.021L208.452 165.056L208.453 165.058L208.951 165.021ZM212.115 160.715L212.348 161.157L212.36 161.151L212.115 160.715ZM220.113 157.902L220.245 158.385L220.25 158.383L220.113 157.902ZM222.268 157.271L222.674 157.563C222.799 157.389 222.799 157.154 222.675 156.98C222.55 156.806 222.328 156.73 222.123 156.792L222.268 157.271ZM210.961 171.877L210.589 171.543L210.587 171.545L210.961 171.877ZM209.379 175.129L209.876 175.184L209.876 175.181L209.379 175.129ZM210.434 175.92L210.704 176.34C210.709 176.337 210.714 176.334 210.72 176.33L210.434 175.92ZM222.65 164.494L222.275 164.164L222.273 164.166L222.65 164.494ZM230.824 155.617L231.283 155.816C231.374 155.606 231.311 155.361 231.13 155.221C230.949 155.081 230.695 155.082 230.515 155.224L230.824 155.617ZM235.395 185.676L235.299 186.166L235.3 186.167L235.395 185.676ZM248.227 179.787L248.544 180.174L248.548 180.17L248.227 179.787ZM257.807 170.119L257.414 169.81L257.411 169.813L257.807 170.119ZM257.356 167.189L257.004 166.834C256.909 166.928 256.856 167.056 256.856 167.19C256.856 167.324 256.91 167.452 257.005 167.545L257.356 167.189ZM265.617 158.869L266.079 159.061C266.171 158.84 266.093 158.585 265.894 158.452C265.694 158.32 265.428 158.348 265.261 158.519L265.617 158.869ZM257.092 180.666L256.625 180.487L256.621 180.497L257.092 180.666ZM258.059 184.094L258.347 183.685L258.345 183.684L258.059 184.094ZM262.541 185.236L262.557 184.737L262.556 184.736L262.541 185.236ZM267.639 184.445L267.476 183.972L267.465 183.976L267.639 184.445ZM270.715 181.984L270.242 181.821L270.241 181.826L270.715 181.984ZM279.504 160.978L279.964 161.175L279.964 161.174L279.504 160.978ZM289.611 155.178L289.704 154.686L289.698 154.685L289.611 155.178ZM294.094 157.551L294.471 157.223L294.465 157.215L294.094 157.551ZM295.324 162.121L294.835 162.02L294.834 162.024L295.324 162.121ZM293.742 176.359L294.24 176.31L294.239 176.305L293.742 176.359ZM302.268 174.777L301.774 174.695C301.774 174.7 301.773 174.706 301.772 174.711L302.268 174.777ZM303.938 180.139L304.226 179.73C304.22 179.726 304.213 179.722 304.207 179.717L303.938 180.139ZM311.936 175.48L311.608 175.103L311.606 175.105L311.936 175.48ZM320.109 167.394L319.73 167.069L319.724 167.076L320.109 167.394ZM322.834 166.955L322.446 167.27L322.448 167.273L322.834 166.955ZM323.55 168.654L323.051 168.63C323.039 168.872 323.202 169.088 323.439 169.142C323.675 169.196 323.916 169.072 324.011 168.849L323.55 168.654ZM344.707 142.961L345.005 143.363L345.006 143.362L344.707 142.961ZM382.236 126.437L382.153 125.944L382.144 125.946L382.236 126.437ZM386.719 126.525L387.193 126.367C387.188 126.352 387.182 126.337 387.176 126.322L386.719 126.525ZM383.555 128.986L383.336 128.537L383.334 128.538L383.555 128.986ZM351.738 150.344L351.389 149.986L351.388 149.987L351.738 150.344ZM330.117 186.73L329.639 186.586L329.638 186.587L330.117 186.73ZM335.303 198.332L335.404 197.842L335.398 197.841L335.303 198.332ZM351.387 194.641L351.136 194.208L351.135 194.209L351.387 194.641ZM426.533 78.8007L426.107 78.5392L426.107 78.5395L426.533 78.8007ZM432.07 61.3984L432.553 61.2668L432.552 61.2633L432.07 61.3984ZM413.789 61.9257L413.574 61.4742C413.465 61.5264 413.378 61.6168 413.33 61.7286L413.789 61.9257ZM380.303 106.486L380.617 106.875L380.618 106.874L380.303 106.486ZM347.08 122.57L347.047 122.071L347.044 122.072L347.08 122.57ZM353.32 109.035L353.038 108.622L353.038 108.623L353.32 109.035ZM401.66 65.3534L402.06 65.6537C402.194 65.4758 402.194 65.231 402.06 65.0531C401.926 64.8752 401.691 64.807 401.483 64.8859L401.66 65.3534ZM365.625 80.5585L365.856 81.002L365.859 81.0003L365.625 80.5585ZM357.91 84.9616L357.645 84.5375C357.607 84.5609 357.573 84.5892 357.543 84.6217L357.91 84.9616ZM360.237 64.6859L360.468 65.1297C360.681 65.0189 360.786 64.7717 360.716 64.5413L360.237 64.6859ZM353.684 64.914L353.904 65.3627L353.91 65.3599L353.684 64.914ZM328.273 97.8077L328.582 98.2008C328.66 98.1396 328.717 98.0568 328.748 97.9628L328.273 97.8077ZM297.961 119.846L297.551 119.56C297.413 119.758 297.436 120.026 297.606 120.197C297.775 120.369 298.043 120.395 298.243 120.259L297.961 119.846ZM352.014 90.4023L351.7 90.0126L351.7 90.0133L352.014 90.4023ZM338.34 100.882L338.046 100.478C338.021 100.496 337.998 100.516 337.977 100.539L338.34 100.882ZM337.061 102.268L337.431 102.603L337.431 102.603L337.061 102.268ZM333.106 109.387L333.599 109.467L333.599 109.465L333.106 109.387ZM334.863 114.221L334.579 114.632C334.584 114.635 334.589 114.638 334.594 114.642L334.863 114.221ZM332.227 118.879L331.945 119.292L331.948 119.294L332.227 118.879ZM326.208 109.339L326.708 109.318C326.7 109.137 326.595 108.975 326.434 108.893C326.273 108.812 326.081 108.823 325.931 108.924L326.208 109.339ZM307.541 121.076L307.286 120.646C307.078 120.769 306.988 121.023 307.072 121.25C307.156 121.477 307.391 121.611 307.629 121.568L307.541 121.076ZM314.748 123.625L315.107 123.276L315.102 123.271L314.748 123.625ZM317.736 131.447L317.237 131.428L317.236 131.439L317.736 131.447ZM312.815 140.676L312.494 140.292L312.488 140.297L312.815 140.676ZM295.852 147.707L295.76 147.216C295.522 147.26 295.35 147.469 295.352 147.711C295.354 147.953 295.529 148.159 295.767 148.2L295.852 147.707ZM304.816 153.947L304.36 154.152L304.362 154.155L304.816 153.947ZM304.465 166.867L303.991 166.709L303.988 166.716L304.465 166.867ZM331.223 138.93L331.593 139.266L331.593 139.266L331.223 138.93ZM155.537 79.2402L155.499 79.7387L155.502 79.7389L155.537 79.2402ZM184.717 76.7792L184.884 77.2504L184.89 77.2484L184.717 76.7792ZM124.512 73.0878L124.183 72.7113C124.049 72.8285 123.987 73.0082 124.021 73.183C124.055 73.3579 124.179 73.5015 124.347 73.56L124.512 73.0878ZM152.109 61.662L152.176 62.1576L152.176 62.1575L152.109 61.662ZM181.113 63.8593L180.96 64.3352L180.96 64.3354L181.113 63.8593ZM191.045 70.8027L190.547 70.8479L190.547 70.8524L191.045 70.8027ZM125.83 133.908L125.882 134.406L125.894 134.404L125.83 133.908ZM133.301 129.953L133.725 130.217L133.726 130.217L133.301 129.953ZM114.404 132.678L114.266 133.158L114.271 133.159L114.404 132.678ZM96.6505 118.879L96.3206 118.503C96.1709 118.634 96.1135 118.842 96.1744 119.032L96.6505 118.879ZM107.725 115.187L107.76 115.686L107.763 115.686L107.725 115.187ZM121.611 116.506L121.484 116.989L121.489 116.991L121.611 116.506ZM132.246 121.779L131.888 122.128L131.893 122.133L132.246 121.779ZM171.961 138.127L171.641 137.742C171.592 137.783 171.551 137.833 171.521 137.89L171.961 138.127ZM187.631 123.542L188.054 123.807C188.189 123.593 188.142 123.312 187.946 123.153C187.749 122.994 187.465 123.006 187.283 123.182L187.631 123.542ZM158.514 179.963L158.774 179.536L158.772 179.535L158.514 179.963ZM159.595 180.038L159.71 180.525C159.919 180.476 160.074 180.298 160.093 180.083L159.595 180.038ZM160.26 175.129L160.752 175.215L160.753 175.214L160.26 175.129ZM172.301 149.289L172.722 149.559C172.726 149.552 172.731 149.545 172.735 149.537L172.301 149.289ZM133.35 169.264L133.666 169.652C133.694 169.629 133.72 169.603 133.743 169.574L133.35 169.264ZM103.066 184.182L102.94 183.698L102.939 183.698L103.066 184.182ZM157.195 138.039L157.594 138.341C157.612 138.317 157.627 138.292 157.641 138.266L157.195 138.039ZM190.11 83.631L190.506 83.9356C190.659 83.7363 190.641 83.4542 190.463 83.2768C190.285 83.0993 190.002 83.0818 189.804 83.2357L190.11 83.631ZM187.705 85.3046L187.439 84.8813L187.438 84.882L187.705 85.3046ZM170.654 91.1933L170.599 90.6964L170.593 90.6971L170.654 91.1933ZM143.408 90.0507L143.487 89.557L143.485 89.5566L143.408 90.0507ZM114.844 81.8769L115.059 81.4256C114.904 81.3515 114.721 81.3625 114.576 81.4546L114.844 81.8769ZM97.3536 107.189L96.8731 107.051C96.8262 107.214 96.8651 107.39 96.9766 107.518C97.0881 107.646 97.2569 107.708 97.4248 107.684L97.3536 107.189ZM123.897 110.793L124.064 110.322L124.063 110.321L123.897 110.793ZM139.541 129.162L140.031 129.261L140.032 129.259L139.541 129.162ZM132.334 138.127L132.116 137.677L132.11 137.68L132.334 138.127ZM118.535 140.148L118.583 139.651L118.582 139.651L118.535 140.148ZM86.7188 123.449L87.0937 123.118C86.927 122.929 86.6457 122.894 86.4374 123.036L86.7188 123.449ZM67.6466 145.685L67.1792 145.508L67.1788 145.509L67.6466 145.685ZM67.6466 167.219L68.1117 167.035L68.1097 167.03L67.6466 167.219ZM81.2696 182.072L81.4979 181.627L81.4932 181.625L81.2696 182.072ZM176.092 125.91L175.687 125.617C175.537 125.824 175.567 126.111 175.758 126.282C175.949 126.453 176.238 126.453 176.427 126.281L176.092 125.91ZM230.232 69.4843L230.602 69.8209L230.607 69.8156L230.232 69.4843ZM224.52 66.3202L224.87 66.6772L224.873 66.6738L224.52 66.3202ZM231.99 63.1562L231.723 63.5786C231.728 63.5818 231.733 63.585 231.738 63.5881L231.99 63.1562ZM232.693 65.4413L233.179 65.5626C233.18 65.5565 233.181 65.5504 233.183 65.5443L232.693 65.4413ZM250.787 87.2382L251.156 87.5763L251.16 87.5716L250.787 87.2382ZM191.9 134.963L191.49 134.677C191.352 134.875 191.376 135.143 191.545 135.315C191.715 135.486 191.983 135.512 192.182 135.376L191.9 134.963ZM254.654 79.5038L255.142 79.3937L255.14 79.386L254.654 79.5038ZM247.975 79.5917L248.197 80.0398L248.198 80.0389L247.975 79.5917ZM286.535 142.873L286.083 142.661C286.006 142.823 286.023 143.014 286.126 143.16C286.229 143.307 286.402 143.387 286.581 143.371L286.535 142.873ZM296.994 129.865L297.282 130.274L297.283 130.273L296.994 129.865ZM303.586 137.16L303.3 136.75L303.291 136.756L303.586 137.16ZM307.365 132.941L307.83 133.127L307.832 133.121L307.365 132.941ZM306.75 128.986L306.367 129.307C306.37 129.311 306.374 129.316 306.377 129.32L306.75 128.986ZM502.547 106.574L502.275 106.994C502.28 106.997 502.284 106.999 502.288 107.002L502.547 106.574ZM499.91 120.285L499.465 120.057L499.462 120.063L499.91 120.285ZM498.416 109.211L498.81 109.519C498.813 109.515 498.816 109.511 498.82 109.506L498.416 109.211ZM493.494 118.088L493.953 118.287L493.955 118.282L493.494 118.088ZM489.803 136.896L489.341 137.089C489.411 137.256 489.565 137.372 489.745 137.393C489.925 137.414 490.102 137.336 490.208 137.189L489.803 136.896ZM553.863 142.434L553.508 142.081L553.508 142.082L553.863 142.434ZM560.807 128.635L561.165 128.286L561.16 128.281L560.807 128.635ZM531.891 160.803L531.395 160.74C531.37 160.939 531.465 161.133 531.638 161.234C531.81 161.335 532.026 161.324 532.187 161.205L531.891 160.803ZM544.986 136.018L544.624 135.673L544.623 135.675L544.986 136.018ZM554.127 128.723L553.91 128.272L553.903 128.275L554.127 128.723ZM250.198 121.704L250.117 121.211L250.117 121.211L250.198 121.704ZM263.301 112.945L262.906 113.252L262.906 113.252L263.301 112.945ZM250.085 121.621L249.592 121.704L249.592 121.704L250.085 121.621ZM254.9 106.469L255.015 105.983L255.015 105.983L254.9 106.469ZM256.594 111.064L257.085 111.158L257.085 111.158L256.594 111.064ZM256.905 111.193L257.293 111.509L257.293 111.509L256.905 111.193ZM135.008 17.2119L170.187 42.9882L170.778 42.1816L135.599 16.4052L135.008 17.2119ZM35.6265 17.6095C65.0726 -4.33045 105.387 -4.49177 135.008 17.2119L135.599 16.4052C105.624 -5.55797 64.8273 -5.39472 35.0291 16.8076L35.6265 17.6095ZM24.711 141.986C-9.55529 105.598 -4.45418 47.4732 35.6265 17.6095L35.0291 16.8076C-5.53099 47.0285 -10.6931 105.848 23.983 142.672L24.711 141.986ZM50.7547 169.643L24.711 141.986L23.983 142.672L50.0267 170.328L50.7547 169.643ZM49.9116 170.129C51.2834 174.721 53.4879 179.094 56.5201 183.246L57.3277 182.656C54.3575 178.589 52.2066 174.318 50.8698 169.843L49.9116 170.129ZM56.5193 183.245C61.6256 190.277 67.8536 194.863 75.2041 196.963L75.4788 196.001C68.3736 193.971 62.3232 189.536 57.3285 182.657L56.5193 183.245ZM159.845 285.489L75.7054 196.139L74.9774 196.825L159.117 286.175L159.845 285.489ZM197.221 285.187C187.226 296.15 170.015 296.29 159.845 285.489L159.117 286.175C169.686 297.399 187.573 297.254 197.96 285.86L197.221 285.187ZM294.027 178.991L197.221 285.187L197.96 285.86L294.766 179.665L294.027 178.991ZM293.927 179.501C295.076 182.624 297.501 184.577 301.105 185.373L301.321 184.396C297.998 183.663 295.879 181.912 294.866 179.156L293.927 179.501ZM301.1 185.372C304.189 186.09 307.611 185.075 311.324 182.495C315.04 179.914 319.111 175.723 323.539 169.952L322.746 169.344C318.346 175.077 314.348 179.177 310.754 181.674C307.157 184.173 304.028 185.025 301.326 184.398L301.1 185.372ZM322.678 169.463C321.142 173.319 320.059 177.351 319.427 181.559L320.416 181.707C321.036 177.573 322.1 173.616 323.607 169.833L322.678 169.463ZM319.428 181.558C318.357 188.637 319.632 194.638 323.302 199.512L324.101 198.91C320.622 194.291 319.378 188.574 320.416 181.708L319.428 181.558ZM323.3 199.509C326.791 204.205 331.788 206.902 338.236 207.618L338.346 206.624C332.138 205.934 327.408 203.358 324.102 198.913L323.3 199.509ZM338.234 207.618C344.979 208.394 351.996 206.778 359.272 202.814L358.794 201.936C351.656 205.824 344.845 207.372 338.348 206.624L338.234 207.618ZM359.272 202.814C367.437 198.377 374.932 191.465 381.761 182.103L380.954 181.514C374.19 190.785 366.801 197.584 358.795 201.936L359.272 202.814ZM381.754 182.113C383.112 180.342 384.847 177.871 386.959 174.703L386.127 174.148C384.02 177.309 382.299 179.759 380.961 181.504L381.754 182.113ZM386.94 174.729C387.717 173.714 388.547 172.467 389.433 170.992L388.575 170.477C387.703 171.931 386.893 173.145 386.146 174.122L386.94 174.729ZM389.422 171.008C394.114 163.854 400.21 154.152 407.712 141.904L406.859 141.381C399.36 153.626 393.269 163.318 388.586 170.46L389.422 171.008ZM407.702 141.919C410.694 137.402 413.743 132.622 416.852 127.579L416 127.054C412.897 132.089 409.853 136.86 406.868 141.366L407.702 141.919ZM416.317 127.804C422.858 129.268 426.753 132.66 428.159 137.948C429.582 143.298 428.488 150.688 424.75 160.18L425.68 160.546C429.442 150.995 430.633 143.356 429.126 137.691C427.603 131.963 423.353 128.353 416.535 126.828L416.317 127.804ZM424.749 160.181C421.47 168.556 419.628 174.533 419.268 178.067L420.263 178.168C420.607 174.787 422.398 168.928 425.681 160.546L424.749 160.181ZM419.268 178.068C418.851 182.303 419.451 185.96 421.106 189.012C422.762 192.066 425.45 194.469 429.13 196.234L429.562 195.332C426.035 193.64 423.522 191.37 421.985 188.535C420.447 185.699 419.861 182.252 420.263 178.166L419.268 178.068ZM429.128 196.233C438.022 200.529 448.059 197.372 459.128 187.186L458.451 186.45C447.488 196.538 437.896 199.358 429.563 195.333L429.128 196.233ZM459.129 187.185C463.972 182.697 470.118 175.251 477.565 164.873L476.752 164.29C469.315 174.655 463.216 182.034 458.449 186.452L459.129 187.185ZM477.56 164.879C477.973 164.32 478.265 163.804 478.377 163.345C478.494 162.861 478.421 162.364 478.002 162.023L477.371 162.799C477.4 162.823 477.463 162.87 477.405 163.109C477.341 163.373 477.144 163.76 476.756 164.285L477.56 164.879ZM478.042 162.763C482.46 158.298 487.035 153.24 491.768 147.589L491.002 146.946C486.284 152.58 481.727 157.617 477.331 162.06L478.042 162.763ZM491.221 147.74C492.637 148.233 494.367 148.471 496.395 148.471V147.471C494.438 147.471 492.828 147.24 491.549 146.795L491.221 147.74ZM496.407 148.47C498.852 148.411 500.763 147.934 502.056 146.964L501.456 146.164C500.405 146.952 498.741 147.413 496.382 147.471L496.407 148.47ZM501.299 146.362C499.074 151.398 497.811 154.276 497.515 154.985L498.438 155.37C498.729 154.673 499.985 151.809 502.213 146.766L501.299 146.362ZM497.511 154.995C494.347 163.081 492.592 168.972 492.293 172.627L493.289 172.709C493.576 169.215 495.278 163.447 498.442 155.36L497.511 154.995ZM492.292 172.635C492.053 176.319 492.768 179.329 494.503 181.606C496.238 183.884 498.941 185.359 502.537 186.078L502.733 185.098C499.297 184.41 496.844 183.029 495.298 181C493.752 178.971 493.061 176.224 493.29 172.7L492.292 172.635ZM502.542 186.079C504.238 186.399 506.21 185.998 508.427 184.964C510.649 183.929 513.161 182.237 515.962 179.908L515.323 179.139C512.558 181.438 510.119 183.072 508.005 184.058C505.886 185.046 504.137 185.362 502.728 185.096L502.542 186.079ZM515.964 179.907C518.344 177.911 520.458 175.944 522.303 174.005L521.578 173.316C519.763 175.224 517.678 177.165 515.321 179.14L515.964 179.907ZM521.46 173.799C522.732 178.219 525.161 181.381 528.763 183.221L529.218 182.33C525.901 180.636 523.629 177.722 522.421 173.522L521.46 173.799ZM528.762 183.22C534.966 186.412 541.958 186.177 549.678 182.614L549.259 181.706C541.745 185.174 535.085 185.349 529.219 182.331L528.762 183.22ZM549.678 182.614C556.62 179.41 562.978 174.139 568.758 166.826L567.973 166.206C562.269 173.423 556.029 178.582 549.259 181.706L549.678 182.614ZM568.765 166.816C569.327 166.067 569.656 165.318 569.656 164.582H568.656C568.656 165.018 568.459 165.558 567.965 166.216L568.765 166.816ZM569.656 164.582C569.656 164.243 569.58 163.921 569.406 163.639C569.232 163.356 568.98 163.144 568.677 162.992L568.23 163.887C568.395 163.969 568.494 164.065 568.555 164.163C568.615 164.261 568.656 164.394 568.656 164.582H569.656ZM568.701 163.005C568.161 162.696 567.533 162.639 566.861 162.773L567.057 163.754C567.557 163.654 567.925 163.714 568.205 163.873L568.701 163.005ZM566.815 162.785C566.121 162.993 565.538 163.41 565.07 164.011L565.86 164.625C566.212 164.172 566.625 163.886 567.103 163.743L566.815 162.785ZM565.073 164.008C561.077 169.046 555.917 173.282 549.582 176.711L550.058 177.59C556.498 174.105 561.767 169.785 565.857 164.629L565.073 164.008ZM549.581 176.711C546.266 178.514 543.385 179.655 540.932 180.154C538.479 180.653 536.486 180.505 534.914 179.773L534.492 180.68C536.319 181.53 538.545 181.66 541.131 181.134C543.716 180.608 546.695 179.419 550.059 177.59L549.581 176.711ZM534.917 179.774C532.992 178.866 531.907 177.221 531.686 174.733L530.69 174.822C530.937 177.607 532.195 179.595 534.49 180.679L534.917 179.774ZM531.686 174.732C531.517 172.881 531.853 170.075 532.729 166.276L531.755 166.052C530.874 169.871 530.506 172.806 530.69 174.823L531.686 174.732ZM532.531 166.572C541.973 159.886 550.1 153.667 556.911 147.913L556.265 147.149C549.482 152.88 541.379 159.082 531.953 165.756L532.531 166.572ZM556.91 147.913C561.824 143.769 564.946 139.382 566.211 134.743L565.246 134.48C564.05 138.864 561.079 143.09 556.266 147.149L556.91 147.913ZM566.208 134.752C566.87 132.498 566.99 130.495 566.519 128.767C566.044 127.028 564.983 125.614 563.371 124.528L562.813 125.358C564.247 126.324 565.149 127.546 565.554 129.03C565.961 130.525 565.877 132.33 565.249 134.471L566.208 134.752ZM563.376 124.532C560.983 122.875 558.055 122.154 554.628 122.335L554.681 123.333C557.933 123.162 560.631 123.847 562.807 125.354L563.376 124.532ZM554.628 122.335C551.266 122.515 547.773 123.504 544.15 125.286L544.592 126.183C548.118 124.449 551.48 123.505 554.681 123.333L554.628 122.335ZM544.151 125.285C535.901 129.322 529.526 135.791 525.029 144.668L525.921 145.12C530.329 136.419 536.553 130.116 544.591 126.183L544.151 125.285ZM525.03 144.665C522.06 150.428 520.523 157.098 520.404 164.662L521.404 164.678C521.52 157.241 523.03 150.728 525.919 145.124L525.03 144.665ZM520.404 164.664C520.386 166.125 520.437 167.51 520.557 168.818L521.553 168.727C521.436 167.457 521.386 166.107 521.404 164.676L520.404 164.664ZM520.68 168.442C518.815 170.561 516.383 172.928 513.381 175.543L514.037 176.297C517.061 173.663 519.527 171.265 521.431 169.103L520.68 168.442ZM513.381 175.543C511.132 177.499 509.345 178.851 508.011 179.617C507.342 180.002 506.814 180.223 506.417 180.309C506.015 180.397 505.833 180.331 505.751 180.269L505.144 181.063C505.56 181.382 506.095 181.403 506.631 181.286C507.172 181.168 507.801 180.891 508.509 180.484C509.929 179.669 511.774 178.266 514.037 176.297L513.381 175.543ZM505.75 180.268C505.216 179.862 504.848 179.181 504.713 178.13C504.577 177.074 504.682 175.69 505.057 173.96C505.806 170.502 507.603 165.783 510.469 159.788L509.567 159.357C506.69 165.373 504.854 170.176 504.08 173.749C503.693 175.534 503.564 177.043 503.721 178.258C503.878 179.478 504.331 180.445 505.145 181.064L505.75 180.268ZM510.469 159.787C512.163 156.225 514.472 151.781 517.399 146.454L516.523 145.972C513.591 151.309 511.271 155.771 509.566 159.358L510.469 159.787ZM517.401 146.45C520.148 141.365 521.684 138.471 521.986 137.806L521.076 137.393C520.792 138.017 519.281 140.866 516.521 145.975L517.401 146.45ZM521.985 137.81C523.185 135.23 523.655 132.817 523.345 130.587C523.034 128.351 521.947 126.349 520.121 124.584L519.426 125.303C521.116 126.936 522.079 128.742 522.354 130.725C522.631 132.714 522.221 134.93 521.078 137.389L521.985 137.81ZM520.127 124.59C518.787 123.249 517.331 122.373 515.759 121.996L515.526 122.969C516.884 123.294 518.182 124.059 519.42 125.297L520.127 124.59ZM515.777 122.001C515.01 121.786 514.325 121.707 513.749 121.815C513.149 121.928 512.675 122.244 512.39 122.773L513.27 123.247C513.396 123.014 513.595 122.861 513.933 122.798C514.295 122.73 514.81 122.768 515.508 122.964L515.777 122.001ZM512.395 122.764C509.052 128.686 506.667 132.55 505.229 134.391L506.017 135.007C507.509 133.098 509.928 129.169 513.266 123.255L512.395 122.764ZM505.229 134.391C503.462 136.65 501.802 138.207 500.254 139.1C498.715 139.987 497.308 140.208 496.002 139.843L495.732 140.806C497.356 141.26 499.04 140.954 500.753 139.966C502.457 138.984 504.21 137.318 506.017 135.007L505.229 134.391ZM496.219 140.679C503.238 133.72 507.664 126.552 509.449 119.172L508.477 118.937C506.747 126.089 502.442 133.1 495.515 139.969L496.219 140.679ZM509.45 119.168C510.284 115.593 510.295 112.45 509.439 109.762L508.487 110.066C509.272 112.534 509.283 115.485 508.476 118.941L509.45 119.168ZM509.441 109.768C508.581 106.941 506.818 104.868 504.173 103.576L503.734 104.475C506.128 105.644 507.705 107.496 508.485 110.06L509.441 109.768ZM504.183 103.581C500.623 101.74 496.93 101.874 493.166 103.938L493.647 104.815C497.148 102.895 500.487 102.795 503.724 104.469L504.183 103.581ZM493.171 103.936C489.663 105.811 486.787 108.942 484.525 113.287L485.412 113.748C487.604 109.538 490.353 106.576 493.642 104.818L493.171 103.936ZM484.528 113.282C482.146 117.747 480.897 122.57 480.778 127.744L481.777 127.767C481.893 122.746 483.104 118.077 485.41 113.753L484.528 113.282ZM480.778 127.745C480.658 133.46 481.999 138.708 484.801 143.478L485.664 142.971C482.958 138.366 481.662 133.302 481.777 127.766L480.778 127.745ZM484.777 143.017C482.117 148.859 475.719 157.452 465.524 168.818L466.269 169.486C476.465 158.118 482.957 149.426 485.688 143.432L484.777 143.017ZM465.51 168.836C464.962 169.505 464.598 170.151 464.522 170.76L465.514 170.884C465.555 170.556 465.776 170.089 466.284 169.469L465.51 168.836ZM464.522 170.76C464.484 171.056 464.506 171.353 464.628 171.622C464.754 171.899 464.967 172.103 465.234 172.236L465.681 171.342C465.595 171.299 465.559 171.254 465.539 171.209C465.515 171.155 465.492 171.057 465.514 170.884L464.522 170.76ZM465.234 172.236C465.288 172.264 465.344 172.289 465.401 172.311L465.772 171.383C465.742 171.371 465.711 171.357 465.681 171.342L465.234 172.236ZM465.233 171.494L465.115 171.611L465.822 172.318L465.94 172.201L465.233 171.494ZM465.115 171.611C460.842 175.885 457.367 179.155 454.687 181.427L455.333 182.19C458.044 179.892 461.541 176.6 465.822 172.318L465.115 171.611ZM454.689 181.425C450.345 185.07 446.588 187.366 443.412 188.363C440.253 189.354 437.714 189.05 435.709 187.56L435.112 188.362C437.442 190.094 440.338 190.376 443.712 189.317C447.069 188.263 450.945 185.872 455.331 182.192L454.689 181.425ZM435.715 187.564C434.547 186.668 433.832 185.534 433.549 184.148C433.264 182.748 433.413 181.058 434.042 179.058L433.088 178.758C432.427 180.859 432.239 182.729 432.569 184.347C432.902 185.978 433.754 187.32 435.106 188.358L435.715 187.564ZM434.035 179.077C434.555 177.634 435.485 175.453 436.831 172.525L435.923 172.107C434.574 175.039 433.629 177.253 433.094 178.739L434.035 179.077ZM436.833 172.522C438.708 168.362 439.939 165.605 440.527 164.254L439.61 163.855C439.026 165.199 437.796 167.95 435.921 172.111L436.833 172.522ZM440.529 164.25C444.913 153.921 446.311 145.219 444.62 138.186C442.921 131.122 438.13 125.827 430.344 122.291L429.93 123.201C437.495 126.637 442.035 131.714 443.647 138.42C445.267 145.155 443.954 153.622 439.608 163.859L440.529 164.25ZM430.303 123.218C439.471 119.985 446.336 116.385 450.858 112.398L450.197 111.648C445.813 115.513 439.084 119.061 429.971 122.274L430.303 123.218ZM450.856 112.4C453.647 109.966 460.532 102.194 471.477 89.1415L470.711 88.499C459.742 101.58 452.916 109.276 450.199 111.647L450.856 112.4ZM471.477 89.1418C478.859 80.3534 484.374 74.3741 488.034 71.1793L487.376 70.426C483.653 73.6765 478.094 79.709 470.711 88.4986L471.477 89.1418ZM488.038 71.1758C496.145 63.9437 503.296 60.8689 509.522 61.718L509.657 60.7272C502.994 59.8184 495.555 63.1303 487.372 70.4295L488.038 71.1758ZM509.524 61.7182C510.854 61.8955 511.907 61.9403 512.653 61.8268C513.025 61.7702 513.366 61.668 513.631 61.4863C513.914 61.2912 514.104 61.0057 514.131 60.6457L513.134 60.569C513.133 60.5898 513.132 60.6157 513.064 60.6622C512.977 60.7222 512.805 60.7922 512.503 60.8381C511.902 60.9296 510.963 60.9012 509.656 60.727L509.524 61.7182ZM514.132 60.643C514.177 60.0042 513.845 59.5081 513.303 59.1718C512.789 58.8523 512.053 58.6501 511.15 58.5297L511.018 59.5209C511.873 59.6349 512.441 59.8136 512.776 60.0214C513.084 60.2125 513.147 60.3902 513.134 60.5717L514.132 60.643ZM511.148 58.5295C502.9 57.4614 494.14 58.8593 484.877 62.6942L485.26 63.6181C494.395 59.8359 502.979 58.4799 511.02 59.5212L511.148 58.5295ZM484.877 62.6942C476.324 66.2333 469.231 70.988 463.61 76.964L464.339 77.6491C469.851 71.7892 476.82 67.1103 485.26 63.6182L484.877 62.6942ZM463.613 76.9611C461.083 79.6095 457.91 83.2227 454.098 87.797L454.867 88.4372C458.672 83.8709 461.828 80.2771 464.336 77.652L463.613 76.9611ZM454.096 87.7997C450.053 92.7222 447.191 96.0798 445.504 97.883L446.234 98.5661C447.946 96.7365 450.826 93.3558 454.869 88.4345L454.096 87.7997ZM445.5 97.8875C438.8 105.228 431.649 110.543 424.049 113.85L424.448 114.767C432.199 111.394 439.462 105.986 446.239 98.5616L445.5 97.8875ZM424.682 114.557C427.496 109.632 430.662 103.975 434.178 97.5867L433.302 97.1045C429.788 103.49 426.625 109.141 423.814 114.06L424.682 114.557ZM434.177 97.5888C435.759 94.747 436.924 92.6519 437.671 91.3039C438.045 90.63 438.314 90.1421 438.48 89.8408C438.562 89.6909 438.62 89.5848 438.652 89.5248C438.66 89.5102 438.685 89.464 438.699 89.4291C438.701 89.4238 438.705 89.4147 438.709 89.4033C438.712 89.3951 438.72 89.3704 438.727 89.3378C438.73 89.32 438.735 89.2741 438.737 89.246C438.735 89.198 438.706 89.0651 438.668 88.9851C438.578 88.8725 438.329 88.7467 438.192 88.7402C438.112 88.7538 437.997 88.7994 437.959 88.8222C437.903 88.8596 437.868 88.9005 437.863 88.9056C437.851 88.9191 437.842 88.9305 437.838 88.9361C437.829 88.9479 437.822 88.9578 437.819 88.962C437.809 88.9775 437.799 88.9942 437.794 89.0024L438.651 89.5169C438.658 89.5069 438.655 89.5112 438.649 89.52C438.648 89.5225 438.642 89.5311 438.633 89.542C438.63 89.5472 438.621 89.5582 438.609 89.5714C438.605 89.5762 438.57 89.6169 438.514 89.6542C438.476 89.6769 438.361 89.7225 438.281 89.7361C438.144 89.7296 437.896 89.6038 437.805 89.4913C437.768 89.4114 437.738 89.2784 437.737 89.2305C437.738 89.2025 437.743 89.1568 437.747 89.1391C437.753 89.1068 437.762 89.0824 437.764 89.0746C437.768 89.0637 437.771 89.0552 437.773 89.0505C437.784 89.0257 437.791 89.0128 437.769 89.055C437.741 89.1085 437.686 89.2094 437.603 89.3597C437.439 89.659 437.17 90.1453 436.797 90.819C436.05 92.1663 434.885 94.2607 433.303 97.1024L434.177 97.5888ZM438.648 89.5221C446.143 77.3654 447.368 66.7558 442.081 57.8042L441.22 58.3128C446.246 66.8221 445.185 77.0133 437.797 88.9973L438.648 89.5221ZM442.081 57.8035C439.601 53.6215 436.318 50.6092 432.23 48.7906C428.147 46.9744 423.294 46.3633 417.694 46.9263L417.794 47.9212C423.268 47.3709 427.937 47.9757 431.823 49.7043C435.704 51.4307 438.836 54.2924 441.22 58.3135L442.081 57.8035ZM418.233 47.5278C420.411 37.2854 420.972 27.446 419.911 18.0124L418.917 18.1242C419.965 27.4405 419.413 37.1715 417.255 47.3198L418.233 47.5278ZM419.91 18.0036C419.82 17.3128 419.67 16.7362 419.416 16.3456C419.284 16.1427 419.106 15.9623 418.868 15.8612C418.622 15.757 418.367 15.7599 418.128 15.8316L418.415 16.7894C418.445 16.7806 418.461 16.7799 418.468 16.7801C418.474 16.7802 418.475 16.781 418.477 16.7817C418.481 16.7832 418.519 16.8005 418.577 16.8906C418.704 17.0859 418.833 17.4761 418.918 18.133L419.91 18.0036ZM418.113 15.8361C417.555 16.0222 417.164 16.5567 416.871 17.203C416.569 17.8716 416.318 18.7811 416.11 19.9113L417.093 20.0925C417.295 18.9961 417.528 18.1771 417.782 17.6152C418.047 17.031 418.285 16.8331 418.43 16.7848L418.113 15.8361ZM416.109 19.9145C415.004 26.1381 412.088 35.7419 407.343 48.7465L408.282 49.0893C413.03 36.0782 415.973 26.4048 417.094 20.0893L416.109 19.9145ZM407.71 48.4286C390.589 52.0308 376.136 56.5857 364.358 62.0989L364.782 63.0046C376.471 57.5331 390.846 52.9987 407.916 49.4072L407.71 48.4286ZM365.015 62.324C363.397 59.1625 360.6 57.1452 356.695 56.2527L356.473 57.2276C360.136 58.065 362.663 59.922 364.125 62.7795L365.015 62.324ZM356.702 56.2543C354.043 55.6075 351.182 55.5632 348.125 56.1094L348.301 57.0938C351.241 56.5685 353.96 56.6165 356.466 57.226L356.702 56.2543ZM321.072 19.2461C333.886 29.358 342.825 42.476 347.74 56.7643L348.686 56.439C343.71 41.9749 334.661 28.6953 321.691 18.4611L321.072 19.2461ZM222.033 17.4779C251.693 -4.25434 292.207 -3.53099 321.072 19.2461L321.691 18.4611C292.473 -4.59441 251.464 -5.3266 221.442 16.6712L222.033 17.4779ZM187.217 42.9882L222.033 17.4779L221.442 16.6712L186.626 42.1816L187.217 42.9882ZM170.187 42.9882C175.256 46.7025 182.148 46.7025 187.217 42.9882L186.626 42.1816C181.909 45.6381 175.495 45.6381 170.778 42.1816L170.187 42.9882ZM347.74 56.7643C348.834 59.9434 349.728 63.1806 350.422 66.4555L351.4 66.2483C350.698 62.9336 349.793 59.657 348.686 56.439L347.74 56.7643ZM348.125 56.1094C346.05 56.4802 343.885 57.1231 341.631 58.0344L342.006 58.9615C344.206 58.072 346.304 57.4507 348.301 57.0938L348.125 56.1094ZM341.628 58.0358C329.428 63.0695 316.559 74.9961 303.005 93.7125L303.815 94.299C317.332 75.6326 330.068 63.8874 342.009 58.9602L341.628 58.0358ZM303.006 93.7115C296.72 102.348 288.418 115.697 278.103 133.748L278.971 134.244C289.282 116.201 297.562 102.89 303.814 94.3L303.006 93.7115ZM278.139 133.693C262.489 154.267 252.69 166.727 248.723 171.102L249.464 171.773C253.467 167.359 263.296 154.858 278.935 134.299L278.139 133.693ZM248.719 171.107C247.789 172.16 247.234 173.278 247.103 174.458L248.097 174.569C248.2 173.64 248.641 172.707 249.469 171.768L248.719 171.107ZM247.103 174.458C247.077 174.686 247.07 174.898 247.087 175.088L248.083 174.999C248.074 174.897 248.076 174.755 248.097 174.569L247.103 174.458ZM247.252 174.671C246.835 175.044 246.406 175.422 245.965 175.806L246.621 176.561C247.066 176.173 247.498 175.792 247.918 175.416L247.252 174.671ZM245.965 175.806C243.745 177.734 241.987 179.063 240.682 179.815C240.027 180.193 239.515 180.407 239.133 180.49C238.747 180.575 238.587 180.506 238.522 180.454L237.892 181.23C238.296 181.558 238.825 181.581 239.346 181.468C239.873 181.353 240.489 181.081 241.181 180.682C242.571 179.881 244.388 178.501 246.621 176.561L245.965 175.806ZM238.504 180.44C237.968 180.043 237.587 179.374 237.421 178.34C237.254 177.301 237.313 175.937 237.622 174.229C238.242 170.816 239.842 166.148 242.444 160.212L241.528 159.811C238.916 165.769 237.279 170.521 236.638 174.051C236.318 175.815 236.242 177.303 236.434 178.499C236.626 179.698 237.098 180.644 237.91 181.244L238.504 180.44ZM242.446 160.209C244.023 156.529 246.098 152.115 248.674 146.964L247.779 146.517C245.199 151.678 243.114 156.111 241.527 159.815L242.446 160.209ZM248.672 146.967C250.107 144.155 251.191 142.039 251.923 140.619C252.289 139.909 252.567 139.374 252.756 139.013C252.851 138.832 252.923 138.697 252.973 138.606C252.998 138.56 253.015 138.528 253.027 138.508C253.033 138.498 253.035 138.494 253.035 138.495C253.034 138.495 253.031 138.5 253.026 138.507C253.026 138.508 253.006 138.537 252.975 138.568L252.268 137.861C252.234 137.895 252.212 137.926 252.209 137.932C252.2 137.944 252.193 137.954 252.188 137.962C252.179 137.977 252.169 137.994 252.161 138.009C252.143 138.039 252.12 138.08 252.094 138.128C252.041 138.226 251.966 138.366 251.871 138.548C251.68 138.912 251.401 139.45 251.034 140.161C250.301 141.583 249.217 143.7 247.781 146.513L248.672 146.967ZM253.075 138.424C254.486 135.357 254.401 132.402 252.79 129.615L251.925 130.115C253.361 132.602 253.451 135.213 252.167 138.006L253.075 138.424ZM252.792 129.618C251.505 127.349 249.432 125.473 246.616 123.975L246.146 124.857C248.837 126.289 250.75 128.045 251.923 130.112L252.792 129.618ZM246.621 123.977C244.118 122.606 241.836 121.894 239.789 121.894V122.894C241.609 122.894 243.722 123.53 246.141 124.854L246.621 123.977ZM239.804 121.895C239.28 121.879 238.816 121.913 238.425 122.007C238.035 122.102 237.685 122.264 237.429 122.532C236.873 123.111 236.964 123.92 237.31 124.705L238.225 124.302C237.926 123.623 238.032 123.348 238.151 123.224C238.231 123.14 238.383 123.046 238.66 122.979C238.935 122.913 239.303 122.88 239.774 122.894L239.804 121.895ZM237.317 124.72C239.126 128.503 237.923 133.711 233.311 140.482L234.138 141.045C238.784 134.223 240.276 128.591 238.219 124.288L237.317 124.72ZM233.311 140.483C230.704 144.336 228.278 147.869 226.033 151.084L226.853 151.656C229.101 148.437 231.529 144.9 234.139 141.044L233.311 140.483ZM226.288 150.894C217.217 153.843 206.75 153.488 194.862 149.778L194.564 150.733C206.591 154.486 217.278 154.874 226.597 151.845L226.288 150.894ZM194.886 149.787C194.263 149.557 193.651 149.481 193.063 149.588C192.474 149.695 191.942 149.98 191.472 150.417L192.153 151.15C192.503 150.824 192.865 150.64 193.242 150.572C193.621 150.503 194.05 150.544 194.54 150.725L194.886 149.787ZM191.472 150.417C191.246 150.627 191.057 150.847 190.939 151.077C190.818 151.314 190.754 151.601 190.858 151.894C190.958 152.179 191.18 152.367 191.409 152.491C191.639 152.616 191.924 152.704 192.242 152.768L192.438 151.787C192.17 151.733 191.993 151.671 191.887 151.613C191.778 151.554 191.788 151.526 191.801 151.562C191.816 151.606 191.789 151.611 191.829 151.533C191.872 151.449 191.969 151.321 192.153 151.15L191.472 150.417ZM192.244 152.768C193.061 152.927 193.7 153.527 194.105 154.782C194.516 156.054 194.652 157.919 194.478 160.416L195.475 160.486C195.653 157.944 195.526 155.928 195.057 154.475C194.583 153.005 193.728 152.038 192.435 151.786L192.244 152.768ZM194.477 160.422C194.189 165.385 192.834 169.907 190.415 173.995L191.276 174.504C193.779 170.273 195.178 165.595 195.476 160.48L194.477 160.422ZM190.413 174C186.907 180.076 183.558 184.878 180.367 188.417L181.11 189.087C184.364 185.477 187.753 180.611 191.279 174.5L190.413 174ZM180.367 188.418C178.042 191.004 175.96 192.732 174.122 193.643C172.296 194.55 170.754 194.632 169.438 194.012L169.012 194.917C170.683 195.704 172.555 195.537 174.567 194.539C176.567 193.547 178.748 191.714 181.11 189.086L180.367 188.418ZM169.444 194.015C168.588 193.599 168.056 192.497 168.142 190.31C168.227 188.156 168.912 185.148 170.226 181.266L169.278 180.945C167.955 184.856 167.234 187.971 167.143 190.27C167.054 192.536 167.576 194.218 169.006 194.914L169.444 194.015ZM170.227 181.261C170.796 179.524 171.381 177.876 171.983 176.316L171.05 175.956C170.441 177.533 169.85 179.198 169.277 180.95L170.227 181.261ZM171.856 176.503C174.359 174.188 176.461 171.927 178.158 169.721L177.365 169.111C175.709 171.264 173.647 173.484 171.177 175.769L171.856 176.503ZM178.143 169.739C178.541 169.269 178.736 168.728 178.677 168.136C178.619 167.562 178.33 167.002 177.884 166.461L177.112 167.097C177.487 167.552 177.651 167.93 177.682 168.235C177.71 168.522 177.627 168.801 177.38 169.093L178.143 169.739ZM177.895 166.475C177.478 165.93 176.943 165.574 176.292 165.614L176.352 166.612C176.551 166.6 176.8 166.689 177.101 167.083L177.895 166.475ZM176.749 166.373C176.9 166.125 177.052 165.881 177.205 165.642L176.362 165.104C176.205 165.349 176.05 165.599 175.895 165.853L176.749 166.373ZM177.207 165.638C181.414 158.919 185.585 153.32 189.719 148.837L188.984 148.159C184.798 152.699 180.59 158.35 176.359 165.108L177.207 165.638ZM188.89 148.306C188.867 148.362 188.842 148.428 188.827 148.496C188.818 148.536 188.781 148.695 188.854 148.865C188.9 148.974 188.989 149.08 189.125 149.139C189.247 149.193 189.359 149.188 189.426 149.177C189.546 149.158 189.641 149.102 189.683 149.076C189.863 148.963 190.119 148.716 190.416 148.404C191.044 147.746 192.049 146.593 193.426 144.952L192.66 144.309C191.283 145.95 190.296 147.082 189.693 147.713C189.376 148.046 189.207 148.194 189.153 148.228C189.136 148.238 189.183 148.203 189.27 148.189C189.318 148.182 189.416 148.175 189.527 148.224C189.651 148.279 189.732 148.376 189.773 148.471C189.808 148.554 189.81 148.624 189.809 148.654C189.809 148.688 189.804 148.71 189.802 148.717C189.8 148.728 189.8 148.722 189.813 148.69L188.89 148.306ZM193.426 144.953C194.832 143.282 195.875 142.027 196.552 141.187C196.89 140.769 197.141 140.449 197.302 140.231C197.38 140.124 197.446 140.03 197.491 139.955C197.508 139.926 197.545 139.864 197.568 139.791C197.574 139.771 197.614 139.652 197.578 139.507C197.556 139.416 197.501 139.303 197.385 139.219C197.275 139.138 197.16 139.121 197.086 139.121V140.121C197.016 140.121 196.904 140.105 196.795 140.026C196.682 139.943 196.629 139.832 196.607 139.745C196.573 139.606 196.612 139.497 196.614 139.49C196.629 139.443 196.646 139.42 196.632 139.443C196.614 139.473 196.572 139.535 196.497 139.638C196.35 139.837 196.11 140.143 195.774 140.559C195.104 141.39 194.066 142.639 192.661 144.309L193.426 144.953ZM197.364 140.037C223.491 122.58 239.918 111.141 246.619 105.733L245.991 104.955C239.332 110.328 222.947 121.74 196.808 139.205L197.364 140.037ZM246.618 105.733C252.694 100.837 256.888 95.7663 259.156 90.5126L258.238 90.1162C256.054 95.175 251.986 100.124 245.991 104.954L246.618 105.733ZM259.157 90.512C261.186 85.7967 261.452 81.5482 259.86 77.8136L258.941 78.2057C260.396 81.6196 260.193 85.5742 258.238 90.1167L259.157 90.512ZM259.858 77.8081C258.264 74.1905 255.313 71.872 251.081 70.8441L250.845 71.8159C254.816 72.7802 257.49 74.9148 258.943 78.2113L259.858 77.8081ZM251.08 70.8438C246.668 69.785 241.72 70.3699 236.257 72.5414L236.626 73.4706C241.958 71.3513 246.69 70.8188 250.846 71.8162L251.08 70.8438ZM236.869 73.2648C240.067 67.9797 240.963 63.4269 239.303 59.7007L238.389 60.1077C239.852 63.3902 239.145 67.572 236.014 72.7472L236.869 73.2648ZM239.301 59.6981C238.095 57.0314 235.595 55.4976 231.969 55.0141L231.836 56.0053C235.241 56.4593 237.37 57.8552 238.39 60.1103L239.301 59.6981ZM231.96 55.0131C228.335 54.5901 224.117 55.3491 219.326 57.2419L219.694 58.172C224.395 56.3148 228.439 55.609 231.844 56.0063L231.96 55.0131ZM219.328 57.241C211.862 60.1486 203.923 66.4936 195.506 76.2082L196.262 76.863C204.631 67.2031 212.443 60.9956 219.691 58.1729L219.328 57.241ZM196.345 76.7288C197.071 74.9949 197.434 73.1646 197.434 71.2421H196.434C196.434 73.0353 196.096 74.734 195.422 76.3424L196.345 76.7288ZM197.434 71.2475C197.494 65.6713 194.878 60.7614 189.691 56.5286L189.059 57.3033C194.067 61.3908 196.49 66.0317 196.434 71.2367L197.434 71.2475ZM189.692 56.5292C185.408 53.0191 180.241 50.5278 174.201 49.0475L173.963 50.0188C179.876 51.4681 184.904 53.8987 189.058 57.3027L189.692 56.5292ZM174.203 49.0479C163.983 46.5078 153.385 46.5393 142.414 49.1344L142.644 50.1076C153.471 47.5465 163.908 47.5194 173.961 50.0184L174.203 49.0479ZM142.414 49.1345C130.734 51.9069 120.321 57.2172 111.178 65.0619L111.83 65.8208C120.851 58.0795 131.121 52.8429 142.645 50.1075L142.414 49.1345ZM111.72 64.9906C101.569 60.1178 93.1119 52.0483 86.3569 40.7511L85.4987 41.2643C92.3374 52.7015 100.931 60.9211 111.288 65.8921L111.72 64.9906ZM86.3559 40.7494C85.3286 39.047 84.4436 37.8491 83.7023 37.2206C83.3382 36.9119 82.933 36.6743 82.5074 36.6681C82.0236 36.661 81.6734 36.9474 81.4521 37.3295L82.3175 37.8305C82.4186 37.656 82.4785 37.6678 82.4927 37.668C82.5652 37.669 82.7459 37.7208 83.0556 37.9834C83.662 38.4974 84.4762 39.57 85.4997 41.2661L86.3559 40.7494ZM81.4478 37.3372C81.0888 37.9834 80.9854 38.7775 81.08 39.6758C81.1746 40.5745 81.4705 41.6117 81.9496 42.7795L82.8748 42.4C82.4164 41.2827 82.1557 40.3423 82.0745 39.5711C81.9933 38.7995 82.095 38.2313 82.3219 37.8228L81.4478 37.3372ZM81.9478 42.775C86.0259 53 93.2276 62.6998 103.525 71.879L104.19 71.1325C93.9796 62.0305 86.8844 52.453 82.8766 42.4045L81.9478 42.775ZM103.52 71.1372C99.9544 74.4054 96.351 79.1382 92.7043 85.3141L93.5654 85.8225C97.1843 79.6937 100.729 75.0515 104.195 71.8744L103.52 71.1372ZM92.7029 85.3164C88.1667 93.0928 85.0115 101.081 83.2418 109.281L84.2193 109.492C85.9652 101.403 89.0796 93.5125 93.5667 85.8202L92.7029 85.3164ZM83.5684 108.914C73.1519 112.484 65.0019 117.961 59.1466 125.358C53.2918 132.754 49.7556 142.04 48.5168 153.189L49.5107 153.299C50.7328 142.3 54.2132 133.202 59.9307 125.979C65.6477 118.756 73.6256 113.379 83.8927 109.86L83.5684 108.914ZM48.5169 153.188C47.8472 159.12 48.3104 164.768 49.9116 170.129L50.8698 169.843C49.3097 164.62 48.8549 159.107 49.5106 153.3L48.5169 153.188ZM75.7054 196.139L50.7547 169.643L50.0267 170.328L74.9774 196.825L75.7054 196.139ZM75.2041 196.963C77.5723 197.639 80.053 198.056 82.6452 198.216L82.7065 197.218C80.1825 197.063 77.7736 196.657 75.4788 196.001L75.2041 196.963ZM82.6408 198.215C96.9449 199.22 110.417 195.256 123.042 186.348L122.466 185.531C110.013 194.318 96.7662 198.205 82.7109 197.218L82.6408 198.215ZM123.041 186.349C132.941 179.395 141.739 169.889 149.44 157.843L148.597 157.305C140.954 169.26 132.242 178.664 122.467 185.53L123.041 186.349ZM149.386 157.913C150.568 156.635 151.299 155.902 151.612 155.662L151.002 154.869C150.608 155.172 149.814 155.978 148.651 157.234L149.386 157.913ZM150.848 155.066C147.031 163.845 145.451 170.789 146.22 175.841C146.607 178.383 147.591 180.46 149.192 182.038C150.791 183.614 152.97 184.658 155.692 185.199L155.887 184.219C153.305 183.705 151.321 182.731 149.894 181.326C148.471 179.924 147.569 178.056 147.209 175.691C146.484 170.929 147.965 164.205 151.765 155.465L150.848 155.066ZM155.693 185.2C156.859 185.428 158.16 185.301 159.581 184.856L159.281 183.902C157.97 184.313 156.844 184.406 155.885 184.218L155.693 185.2ZM158.931 184.391C158.977 186.307 159.198 188.011 159.601 189.498L160.567 189.236C160.189 187.844 159.975 186.223 159.931 184.367L158.931 184.391ZM159.6 189.493C160.693 193.681 163.279 196.866 167.318 199.036L167.791 198.155C163.979 196.107 161.585 193.14 160.568 189.241L159.6 189.493ZM167.313 199.034C173.258 202.309 180.101 201.662 187.755 197.272L187.257 196.404C179.794 200.685 173.336 201.21 167.796 198.158L167.313 199.034ZM187.76 197.269C195.415 192.758 201.686 185.737 206.583 176.237L205.694 175.779C200.865 185.146 194.714 192.011 187.252 196.407L187.76 197.269ZM206.585 176.234C208.717 172.028 209.693 168.272 209.45 164.984L208.453 165.058C208.678 168.099 207.779 171.667 205.693 175.782L206.585 176.234ZM209.45 164.987C209.353 163.575 210.201 162.287 212.348 161.157L211.882 160.272C209.577 161.486 208.315 163.07 208.452 165.056L209.45 164.987ZM212.36 161.151C213.765 160.364 216.378 159.439 220.245 158.385L219.982 157.42C216.114 158.475 213.395 159.425 211.871 160.279L212.36 161.151ZM220.25 158.383C220.993 158.172 221.714 157.961 222.413 157.75L222.123 156.792C221.43 157.002 220.715 157.212 219.977 157.421L220.25 158.383ZM221.862 156.979C217.062 163.666 213.306 168.517 210.589 171.543L211.333 172.211C214.088 169.143 217.87 164.256 222.674 157.563L221.862 156.979ZM210.587 171.545C209.599 172.657 209.012 173.835 208.882 175.076L209.876 175.181C209.98 174.196 210.448 173.206 211.335 172.209L210.587 171.545ZM208.882 175.074C208.85 175.361 208.846 175.628 208.887 175.859C208.927 176.085 209.024 176.344 209.255 176.518C209.498 176.7 209.782 176.708 210.016 176.655C210.244 176.604 210.477 176.487 210.704 176.34L210.163 175.499C209.981 175.617 209.862 175.665 209.797 175.679C209.738 175.692 209.787 175.667 209.855 175.718C209.91 175.759 209.89 175.788 209.871 175.684C209.854 175.586 209.849 175.424 209.876 175.184L208.882 175.074ZM210.72 176.33C214.631 173.604 218.733 169.764 223.028 164.822L222.273 164.166C218.013 169.068 213.971 172.845 210.148 175.51L210.72 176.33ZM223.026 164.824C225.34 162.188 227.175 160.134 228.533 158.658C229.905 157.169 230.762 156.302 231.133 156.01L230.515 155.224C230.067 155.577 229.151 156.512 227.798 157.981C226.432 159.465 224.59 161.526 222.275 164.164L223.026 164.824ZM230.366 155.418C226.461 164.402 224.844 171.499 225.628 176.654C226.022 179.247 227.026 181.363 228.661 182.967C230.294 184.569 232.519 185.626 235.299 186.166L235.49 185.185C232.85 184.671 230.82 183.684 229.362 182.254C227.906 180.826 226.984 178.921 226.616 176.504C225.877 171.64 227.395 164.762 231.283 155.816L230.366 155.418ZM235.3 186.167C236.966 186.487 238.909 186.101 241.096 185.097C243.288 184.092 245.772 182.444 248.543 180.174L247.91 179.4C245.174 181.641 242.765 183.232 240.679 184.189C238.589 185.148 236.87 185.45 235.489 185.185L235.3 186.167ZM248.548 180.17C252.551 176.814 255.772 173.566 258.202 170.425L257.411 169.813C255.037 172.883 251.871 176.08 247.905 179.404L248.548 180.17ZM258.2 170.428C258.589 169.932 258.78 169.375 258.722 168.775C258.665 168.188 258.377 167.621 257.929 167.077L257.157 167.712C257.529 168.164 257.695 168.549 257.727 168.871C257.756 169.178 257.669 169.486 257.414 169.81L258.2 170.428ZM257.929 167.077C257.857 166.989 257.783 166.908 257.706 166.832L257.005 167.545C257.055 167.594 257.105 167.65 257.157 167.712L257.929 167.077ZM257.708 167.544C260.03 165.242 262.785 162.467 265.974 159.219L265.261 158.519C262.074 161.764 259.321 164.536 257.004 166.834L257.708 167.544ZM265.156 158.677C263.688 162.2 260.843 169.473 256.625 180.487L257.559 180.845C261.778 169.828 264.617 162.569 266.079 159.061L265.156 158.677ZM256.621 180.497C256.333 181.297 256.26 182.058 256.457 182.757C256.655 183.461 257.112 184.041 257.772 184.503L258.345 183.684C257.834 183.326 257.543 182.925 257.419 182.486C257.294 182.042 257.323 181.5 257.562 180.835L256.621 180.497ZM257.77 184.502C258.883 185.288 260.492 185.676 262.526 185.736L262.556 184.736C260.605 184.679 259.227 184.306 258.347 183.685L257.77 184.502ZM262.525 185.736C264.401 185.797 266.165 185.524 267.812 184.914L267.465 183.976C265.948 184.538 264.314 184.793 262.557 184.737L262.525 185.736ZM267.802 184.918C269.557 184.313 270.765 183.417 271.189 182.142L270.241 181.826C269.962 182.661 269.119 183.406 267.476 183.973L267.802 184.918ZM271.187 182.148C271.707 180.646 274.626 173.668 279.964 161.175L279.044 160.782C273.718 173.25 270.777 180.276 270.242 181.821L271.187 182.148ZM279.964 161.174C280.921 158.923 282.339 157.351 284.21 156.416L283.763 155.521C281.649 156.578 280.079 158.346 279.044 160.783L279.964 161.174ZM284.21 156.416C285.869 155.586 287.635 155.337 289.525 155.67L289.698 154.685C287.604 154.316 285.62 154.593 283.763 155.521L284.21 156.416ZM289.519 155.669C291.304 156.004 292.694 156.749 293.723 157.886L294.465 157.215C293.267 155.892 291.669 155.055 289.704 154.686L289.519 155.669ZM293.717 157.879C294.79 159.113 295.154 160.478 294.835 162.02L295.814 162.222C296.198 160.365 295.742 158.684 294.471 157.223L293.717 157.879ZM294.834 162.024C293.487 168.817 292.943 173.633 293.245 176.413L294.239 176.305C293.956 173.695 294.466 169.019 295.815 162.218L294.834 162.024ZM293.245 176.409C293.357 177.534 293.583 178.566 293.927 179.501L294.866 179.156C294.555 178.311 294.345 177.363 294.24 176.31L293.245 176.409ZM303.423 168.685L294.027 178.991L294.766 179.665L304.162 169.358L303.423 168.685ZM302.761 174.859C302.943 173.768 303.442 171.878 304.27 169.168L303.314 168.875C302.486 171.584 301.968 173.531 301.774 174.695L302.761 174.859ZM304.207 179.717C302.985 178.935 302.422 177.402 302.763 174.843L301.772 174.711C301.41 177.426 301.961 179.467 303.668 180.56L304.207 179.717ZM311.606 175.105C309.445 177.003 307.723 178.318 306.433 179.069C305.785 179.446 305.273 179.666 304.885 179.756C304.491 179.847 304.308 179.788 304.226 179.73L303.649 180.547C304.065 180.841 304.589 180.851 305.111 180.73C305.638 180.608 306.25 180.333 306.936 179.933C308.311 179.132 310.09 177.767 312.266 175.856L311.606 175.105ZM319.724 167.076C317.815 169.39 315.113 172.065 311.608 175.103L312.263 175.858C315.79 172.802 318.537 170.086 320.495 167.713L319.724 167.076ZM323.222 166.64C322.769 166.082 322.188 165.757 321.502 165.868C320.87 165.97 320.281 166.426 319.73 167.069L320.489 167.72C320.992 167.133 321.385 166.9 321.661 166.855C321.883 166.82 322.137 166.891 322.446 167.27L323.222 166.64ZM324.049 168.679C324.083 167.982 323.763 167.296 323.22 166.637L322.448 167.273C322.911 167.835 323.068 168.282 323.051 168.63L324.049 168.679ZM344.41 142.559C334.35 150.011 327.234 158.643 323.089 168.46L324.011 168.849C328.074 159.224 335.063 150.727 345.005 143.363L344.41 142.559ZM382.144 125.946C368.357 128.538 355.777 134.078 344.408 142.56L345.006 143.362C356.254 134.969 368.694 129.493 382.329 126.929L382.144 125.946ZM387.176 126.322C387.033 126.002 386.735 125.836 386.46 125.747C386.177 125.656 385.827 125.616 385.432 125.608C384.638 125.592 383.539 125.709 382.153 125.945L382.32 126.93C383.688 126.698 384.713 126.594 385.413 126.608C385.765 126.615 386.004 126.651 386.154 126.699C386.311 126.75 386.287 126.785 386.262 126.728L387.176 126.322ZM383.774 129.436C384.925 128.875 385.797 128.373 386.367 127.931C386.649 127.711 386.885 127.484 387.039 127.249C387.193 127.012 387.304 126.7 387.193 126.367L386.245 126.683C386.222 126.614 386.266 126.602 386.201 126.703C386.135 126.804 385.998 126.951 385.753 127.141C385.267 127.519 384.47 127.984 383.336 128.537L383.774 129.436ZM352.088 150.701C359.832 143.132 370.389 136.04 383.776 129.435L383.334 128.538C369.885 135.174 359.231 142.321 351.389 149.986L352.088 150.701ZM330.596 186.875C334.909 172.595 342.074 160.54 352.089 150.7L351.388 149.987C341.246 159.952 333.997 172.155 329.639 186.586L330.596 186.875ZM335.398 197.841C332.778 197.334 331.154 196.177 330.376 194.437C329.584 192.664 329.614 190.167 330.596 186.873L329.638 186.587C328.628 189.973 328.527 192.75 329.463 194.845C330.414 196.972 332.378 198.275 335.208 198.823L335.398 197.841ZM351.135 194.209C345.281 197.628 340.047 198.805 335.404 197.842L335.201 198.822C340.168 199.851 345.657 198.567 351.639 195.072L351.135 194.209ZM426.107 78.5395C403.227 115.892 385.527 144.218 373.006 163.519C366.745 173.17 361.782 180.56 358.116 185.693C356.282 188.26 354.777 190.256 353.598 191.686C353.008 192.401 352.505 192.969 352.086 193.394C351.661 193.826 351.347 194.085 351.136 194.208L351.638 195.073C351.969 194.881 352.359 194.543 352.799 194.096C353.246 193.642 353.77 193.05 354.37 192.322C355.569 190.866 357.09 188.849 358.929 186.274C362.609 181.123 367.581 173.718 373.845 164.063C386.373 144.751 404.078 116.416 426.96 79.0619L426.107 78.5395ZM431.588 61.5299C432.08 63.334 431.908 65.6448 431.001 68.4977C430.094 71.3458 428.468 74.6914 426.107 78.5392L426.959 79.0622C429.344 75.1756 431.014 71.7537 431.954 68.8009C432.892 65.853 433.115 63.3299 432.553 61.2668L431.588 61.5299ZM414.004 62.3772C419.41 59.8056 423.565 58.5112 426.504 58.4265C427.966 58.3843 429.086 58.6432 429.906 59.1532C430.715 59.6567 431.281 60.4346 431.589 61.5334L432.552 61.2633C432.186 59.9598 431.485 58.9579 430.434 58.3041C429.394 57.657 428.06 57.3812 426.475 57.4269C423.32 57.5179 419.008 58.8896 413.574 61.4742L414.004 62.3772ZM380.618 106.874C395.389 94.8691 406.6 79.9496 414.249 62.1228L413.33 61.7286C405.744 79.4096 394.63 94.1972 379.987 106.098L380.618 106.874ZM347.113 123.069C356.932 122.415 368.104 116.98 380.617 106.875L379.989 106.097C367.541 116.149 356.565 121.437 347.047 122.071L347.113 123.069ZM342.821 123.059C344.21 123.173 345.642 123.176 347.117 123.069L347.044 122.072C345.617 122.176 344.237 122.172 342.904 122.062L342.821 123.059ZM346.933 112.454C345.662 115.814 344.159 119.111 342.423 122.322L343.302 122.798C345.06 119.547 346.581 116.209 347.868 112.808L346.933 112.454ZM347.63 113.075C349.478 112.119 351.469 110.909 353.603 109.448L353.038 108.623C350.93 110.066 348.974 111.254 347.171 112.187L347.63 113.075ZM353.602 109.448C374.9 94.8975 391.06 80.3012 402.06 65.6537L401.26 65.0532C390.347 79.5854 374.28 94.1102 353.038 108.622L353.602 109.448ZM401.483 64.8859C384.315 71.3899 372.277 76.4678 365.391 80.1167L365.859 81.0003C372.684 77.3836 384.67 72.3248 401.837 65.821L401.483 64.8859ZM365.394 80.1151C362.714 81.5111 360.131 82.9852 357.645 84.5375L358.174 85.3857C360.638 83.8476 363.198 82.3863 365.856 81.002L365.394 80.1151ZM357.543 84.6217C355.972 86.316 354.17 87.9959 352.134 89.6608L352.767 90.4349C354.834 88.7446 356.671 87.0336 358.276 85.3015L357.543 84.6217ZM351.062 69.8252C352.184 76.4831 352.486 83.2663 351.952 90.0084L352.949 90.0873C353.489 83.2632 353.184 76.3976 352.048 69.659L351.062 69.8252ZM360.007 64.242C356.888 65.8597 353.979 67.5537 351.281 69.324L351.829 70.1601C354.496 68.4101 357.376 66.7332 360.468 65.1297L360.007 64.242ZM353.91 65.3599C355.81 64.3957 357.232 63.9336 358.211 63.8996C358.692 63.8828 359.027 63.971 359.257 64.1161C359.48 64.2559 359.652 64.4784 359.759 64.8304L360.716 64.5413C360.552 63.998 360.249 63.5584 359.79 63.2696C359.339 62.986 358.787 62.8789 358.176 62.9002C356.97 62.9421 355.386 63.4895 353.457 64.4681L353.91 65.3599ZM351.15 66.7909C352.071 66.289 352.989 65.8129 353.904 65.3627L353.463 64.4653C352.534 64.9219 351.604 65.4045 350.671 65.9129L351.15 66.7909ZM350.422 66.4555C350.658 67.5746 350.872 68.6981 351.062 69.8252L352.048 69.659C351.856 68.5182 351.64 67.381 351.4 66.2483L350.422 66.4555ZM351.281 69.324C339.228 77.2326 331.38 86.6717 327.797 97.6527L328.748 97.9628C332.244 87.2481 339.917 77.9767 351.829 70.1601L351.281 69.324ZM327.964 97.4147C319.188 104.317 309.093 111.656 297.68 119.432L298.243 120.259C309.671 112.472 319.784 105.12 328.582 98.2008L327.964 97.4147ZM298.372 120.131C316.74 93.7153 334.337 75.9572 351.15 66.7909L350.671 65.9129C333.659 75.1876 315.956 93.0919 297.551 119.56L298.372 120.131ZM352.134 89.6609C351.991 89.7782 351.846 89.8954 351.7 90.0126L352.327 90.792C352.475 90.673 352.622 90.554 352.767 90.4349L352.134 89.6609ZM351.7 90.0133C347.3 93.5675 342.749 97.0556 338.046 100.478L338.635 101.286C343.351 97.8546 347.915 94.3562 352.328 90.7912L351.7 90.0133ZM337.977 100.539C337.543 100.999 337.114 101.464 336.69 101.932L337.431 102.603C337.851 102.14 338.275 101.68 338.704 101.225L337.977 100.539ZM336.69 101.932C334.371 104.489 332.984 106.949 332.612 109.309L333.599 109.465C333.93 107.372 335.18 105.085 337.431 102.603L336.69 101.932ZM332.612 109.307C332.426 110.452 332.482 111.487 332.811 112.392C333.143 113.303 333.739 114.05 334.579 114.632L335.148 113.81C334.464 113.336 334.006 112.751 333.751 112.05C333.495 111.344 333.433 110.49 333.599 109.467L332.612 109.307ZM334.594 114.642C337.659 116.605 342.069 115.954 347.63 113.075L347.171 112.187C341.657 115.041 337.708 115.449 335.133 113.8L334.594 114.642ZM351.952 90.0084C351.35 97.6231 349.684 105.185 346.933 112.454L347.868 112.808C350.653 105.449 352.34 97.7946 352.949 90.0873L351.952 90.0084ZM331.948 119.294C335.195 121.474 338.823 122.728 342.821 123.059L342.904 122.062C339.07 121.745 335.607 120.545 332.505 118.464L331.948 119.294ZM325.709 109.361C325.88 113.299 328.001 116.61 331.946 119.292L332.508 118.465C328.753 115.912 326.862 112.864 326.708 109.318L325.709 109.361ZM307.796 121.506C314.247 117.687 320.478 113.77 326.486 109.755L325.931 108.924C319.938 112.928 313.723 116.835 307.286 120.646L307.796 121.506ZM315.102 123.271C312.838 121.007 310.276 120.082 307.454 120.584L307.629 121.568C310.079 121.133 312.323 121.907 314.395 123.978L315.102 123.271ZM318.236 131.466C318.358 128.284 317.312 125.543 315.107 123.276L314.39 123.974C316.403 126.043 317.349 128.517 317.237 131.428L318.236 131.466ZM313.135 141.059C316.443 138.293 318.175 135.089 318.236 131.456L317.236 131.439C317.181 134.72 315.631 137.668 312.494 140.292L313.135 141.059ZM295.944 148.198C303.489 146.784 309.24 144.416 313.141 141.055L312.488 140.297C308.772 143.498 303.214 145.818 295.76 147.216L295.944 148.198ZM305.273 153.743C303.666 150.158 300.513 147.997 295.936 147.214L295.767 148.2C300.096 148.94 302.92 150.939 304.36 154.152L305.273 153.743ZM304.939 167.025C306.717 161.692 306.869 157.242 305.271 153.74L304.362 154.155C305.811 157.333 305.728 161.495 303.991 166.709L304.939 167.025ZM304.27 169.168C304.474 168.5 304.698 167.784 304.941 167.019L303.988 166.716C303.744 167.484 303.519 168.203 303.314 168.875L304.27 169.168ZM330.854 138.593L303.423 168.685L304.162 169.358L331.593 139.266L330.854 138.593ZM342.423 122.322C339.318 128.066 335.465 133.534 330.854 138.593L331.593 139.266C336.259 134.148 340.159 128.612 343.303 122.798L342.423 122.322ZM155.502 79.7389C167.895 80.6199 177.701 79.8032 184.884 77.2504L184.549 76.3081C177.553 78.7943 167.906 79.6182 155.573 78.7414L155.502 79.7389ZM124.347 73.56C133.652 76.799 144.037 78.857 155.499 79.7387L155.576 78.7416C144.186 77.8655 133.887 75.8219 124.676 72.6156L124.347 73.56ZM152.043 61.1664C140.544 62.6997 131.246 66.5386 124.183 72.7113L124.841 73.4643C131.723 67.4495 140.823 63.6713 152.176 62.1576L152.043 61.1664ZM181.267 63.3834C172.281 60.4867 162.537 59.7515 152.043 61.1665L152.176 62.1575C162.541 60.76 172.133 61.4897 180.96 64.3352L181.267 63.3834ZM191.543 70.7574C191.406 69.2556 190.381 67.9178 188.673 66.7234C186.958 65.5249 184.48 64.4152 181.266 63.3832L180.96 64.3354C184.133 65.3541 186.504 66.4271 188.1 67.543C189.702 68.6631 190.449 69.7716 190.547 70.8479L191.543 70.7574ZM184.89 77.2484C187.144 76.4177 188.857 75.4808 189.982 74.4181C191.12 73.343 191.679 72.1147 191.543 70.7529L190.547 70.8524C190.646 71.8344 190.266 72.7741 189.295 73.6911C188.311 74.6206 186.742 75.5001 184.544 76.31L184.89 77.2484ZM125.894 134.404C129.609 133.925 132.269 132.561 133.725 130.217L132.876 129.689C131.638 131.681 129.317 132.954 125.766 133.412L125.894 134.404ZM114.271 133.159C118.533 134.344 122.406 134.765 125.882 134.405L125.779 133.411C122.457 133.754 118.713 133.356 114.538 132.196L114.271 133.159ZM96.1744 119.032C98.2988 125.648 104.408 130.325 114.266 133.158L114.542 132.197C104.83 129.406 99.1037 124.884 97.1265 118.726L96.1744 119.032ZM107.689 114.689C102.657 115.044 98.8397 116.291 96.3206 118.503L96.9804 119.255C99.2659 117.248 102.831 116.034 107.76 115.686L107.689 114.689ZM121.738 116.022C117 114.778 112.315 114.333 107.686 114.689L107.763 115.686C112.275 115.339 116.848 115.772 121.484 116.989L121.738 116.022ZM132.604 121.43C130.286 119.051 126.64 117.262 121.734 116.021L121.489 116.991C126.309 118.21 129.753 119.937 131.888 122.128L132.604 121.43ZM133.726 130.217C134.679 128.679 135.089 127.151 134.895 125.648C134.702 124.148 133.914 122.74 132.6 121.426L131.893 122.133C133.098 123.338 133.746 124.552 133.904 125.776C134.061 126.998 133.739 128.297 132.876 129.69L133.726 130.217ZM172.281 138.511C175.114 136.155 180.35 131.28 187.978 123.901L187.283 123.182C179.651 130.565 174.441 135.414 171.641 137.742L172.281 138.511ZM158.772 179.535C157.85 178.979 157.294 177.814 157.283 175.796C157.273 173.787 157.809 171.059 158.924 167.591C161.151 160.664 165.637 150.926 172.401 138.364L171.521 137.89C164.75 150.465 160.227 160.268 157.972 167.285C156.845 170.79 156.272 173.636 156.283 175.802C156.295 177.959 156.892 179.569 158.256 180.391L158.772 179.535ZM159.48 179.552C159.079 179.646 158.874 179.597 158.774 179.536L158.253 180.389C158.674 180.647 159.19 180.648 159.71 180.525L159.48 179.552ZM159.767 175.043C159.46 176.799 159.237 178.449 159.097 179.993L160.093 180.083C160.23 178.57 160.45 176.948 160.752 175.215L159.767 175.043ZM171.88 149.019C164.958 159.813 160.898 168.496 159.767 175.044L160.753 175.214C161.848 168.871 165.816 160.327 172.722 149.559L171.88 149.019ZM187.207 123.276C182.723 130.419 177.609 139.008 171.867 149.041L172.735 149.537C178.473 139.512 183.579 130.936 188.054 123.807L187.207 123.276ZM133.035 168.877C124.64 175.706 114.611 180.648 102.94 183.698L103.193 184.665C114.987 181.584 125.148 176.581 133.666 169.652L133.035 168.877ZM156.797 137.737C144.127 154.46 136.182 164.864 132.958 168.955L133.743 169.574C136.974 165.474 144.926 155.061 157.594 138.341L156.797 137.737ZM189.713 83.3264C179.446 96.6898 168.459 114.855 156.75 137.812L157.641 138.266C169.335 115.339 180.291 97.2322 190.506 83.9356L189.713 83.3264ZM187.971 85.7279C188.846 85.1782 189.661 84.6111 190.416 84.0263L189.804 83.2357C189.076 83.7989 188.288 84.3475 187.439 84.8813L187.971 85.7279ZM170.71 91.6902C177.051 90.979 182.808 88.9922 187.972 85.7272L187.438 84.882C182.407 88.0623 176.797 90.0013 170.599 90.6964L170.71 91.6902ZM143.329 90.5444C153.964 92.2483 163.096 92.6346 170.716 91.6895L170.593 90.6971C163.096 91.627 154.064 91.2516 143.487 89.557L143.329 90.5444ZM114.628 82.3281C122.419 86.0461 131.99 88.7818 143.331 90.5448L143.485 89.5566C132.209 87.804 122.738 85.0904 115.059 81.4256L114.628 82.3281ZM97.8341 107.328C101.148 95.816 106.916 87.4932 115.111 82.2992L114.576 81.4546C106.131 86.8074 100.239 95.3597 96.8731 107.051L97.8341 107.328ZM124.063 110.321C114.051 106.788 105.12 105.566 97.2824 106.694L97.4248 107.684C105.056 106.586 113.82 107.767 123.73 111.264L124.063 110.321ZM140.032 129.259C140.852 125.127 139.905 121.448 137.197 118.269C134.509 115.113 130.109 112.474 124.064 110.322L123.729 111.264C129.696 113.389 133.909 115.951 136.436 118.917C138.943 121.861 139.812 125.228 139.051 129.065L140.032 129.259ZM132.552 138.577C136.665 136.581 139.177 133.47 140.031 129.261L139.051 129.063C138.264 132.94 135.972 135.806 132.116 137.677L132.552 138.577ZM118.487 140.646C124.002 141.18 128.702 140.502 132.558 138.574L132.11 137.68C128.467 139.502 123.967 140.172 118.583 139.651L118.487 140.646ZM86.3439 123.78C95.2111 133.829 105.931 139.462 118.488 140.646L118.582 139.651C106.296 138.491 95.8047 132.991 87.0937 123.118L86.3439 123.78ZM68.1139 145.863C71.2321 137.663 77.509 130.326 87.0003 123.862L86.4374 123.036C76.8271 129.58 70.3891 137.067 67.1792 145.508L68.1139 145.863ZM68.1097 167.03C65.348 160.241 65.3431 153.194 68.1143 145.862L67.1788 145.509C64.325 153.06 64.3201 160.368 67.1834 167.407L68.1097 167.03ZM81.4932 181.625C75.1577 178.457 70.7029 173.6 68.1116 167.035L67.1815 167.402C69.8636 174.197 74.4909 179.242 81.046 182.519L81.4932 181.625ZM102.939 183.698C95.2571 185.72 88.119 185.024 81.4978 181.627L81.0414 182.517C87.8967 186.034 95.2899 186.745 103.194 184.665L102.939 183.698ZM176.427 126.281C186.936 116.77 204.998 97.9444 230.602 69.8209L229.863 69.1477C204.256 97.2742 186.224 116.066 175.756 125.539L176.427 126.281ZM224.17 65.9632C212.009 77.8885 195.847 97.7801 175.687 125.617L176.497 126.203C196.65 98.376 212.772 78.541 224.87 66.6772L224.17 65.9632ZM232.258 62.7338C231.2 62.0637 229.955 62.0818 228.609 62.6518C227.278 63.2157 225.796 64.3368 224.166 65.9667L224.873 66.6738C226.466 65.0811 227.84 64.0634 228.999 63.5726C230.144 63.088 231.023 63.1354 231.723 63.5786L232.258 62.7338ZM233.183 65.5443C233.31 64.9381 233.322 64.3772 233.171 63.888C233.016 63.3844 232.7 62.9911 232.242 62.7243L231.738 63.5881C231.984 63.7314 232.136 63.924 232.216 64.1821C232.299 64.4546 232.311 64.8313 232.204 65.3383L233.183 65.5443ZM230.607 69.8156C231.976 68.268 232.857 66.8484 233.179 65.5626L232.208 65.3201C231.944 66.378 231.184 67.6537 229.858 69.153L230.607 69.8156ZM250.419 86.9001C238.035 100.393 218.443 116.276 191.619 134.55L192.182 135.376C219.029 117.087 238.695 101.153 251.156 87.5763L250.419 86.9001ZM254.167 79.614C254.336 80.3624 254.168 81.3366 253.548 82.5761C252.931 83.8099 251.894 85.2519 250.415 86.9048L251.16 87.5716C252.669 85.8847 253.77 84.3677 254.442 83.0233C255.112 81.6847 255.383 80.4617 255.142 79.3937L254.167 79.614ZM248.198 80.0389C250.177 79.0494 251.645 78.5886 252.639 78.5756C253.127 78.5691 253.46 78.671 253.685 78.83C253.903 78.9846 254.074 79.2304 254.168 79.6216L255.14 79.386C255.001 78.8104 254.717 78.3348 254.262 78.0133C253.813 77.6963 253.252 77.5674 252.626 77.5756C251.394 77.5919 249.756 78.1419 247.751 79.1445L248.198 80.0389ZM192.311 135.248C211.805 107.208 230.437 88.8321 248.197 80.0398L247.753 79.1436C229.77 88.0466 211.02 106.585 191.49 134.677L192.311 135.248ZM286.988 143.085C289.594 137.525 293.029 133.263 297.282 130.274L296.707 129.456C292.288 132.561 288.75 136.971 286.083 142.661L286.988 143.085ZM303.291 136.756C299.048 139.853 293.459 141.736 286.49 142.375L286.581 143.371C293.674 142.721 299.452 140.796 303.881 137.564L303.291 136.756ZM306.901 132.756C306.365 134.095 305.191 135.432 303.3 136.75L303.872 137.57C305.848 136.193 307.194 134.717 307.83 133.127L306.901 132.756ZM306.377 129.32C306.819 129.813 307.071 130.334 307.157 130.887C307.243 131.442 307.167 132.064 306.899 132.762L307.832 133.121C308.149 132.296 308.264 131.496 308.145 130.733C308.026 129.967 307.677 129.273 307.123 128.653L306.377 129.32ZM297.283 130.273C299.45 128.742 301.275 127.949 302.774 127.814C304.236 127.683 305.416 128.172 306.367 129.307L307.133 128.665C305.974 127.281 304.475 126.657 302.684 126.818C300.931 126.976 298.933 127.883 296.706 129.457L297.283 130.273ZM502.288 107.002C503.107 107.498 503.5 108.663 503.067 110.918C502.641 113.133 501.451 116.173 499.465 120.057L500.355 120.513C502.354 116.604 503.596 113.463 504.049 111.107C504.494 108.792 504.214 106.998 502.806 106.146L502.288 107.002ZM498.82 109.506C499.687 108.321 500.427 107.56 501.036 107.171C501.633 106.791 502.004 106.818 502.275 106.994L502.819 106.154C502.094 105.686 501.279 105.83 500.498 106.328C499.731 106.818 498.903 107.699 498.013 108.916L498.82 109.506ZM493.955 118.282C495.527 114.556 497.147 111.64 498.81 109.519L498.023 108.902C496.286 111.118 494.625 114.12 493.034 117.893L493.955 118.282ZM490.264 136.704C489.588 135.08 489.51 132.751 490.118 129.654C490.723 126.568 491.997 122.782 493.953 118.287L493.036 117.888C491.065 122.417 489.761 126.277 489.136 129.461C488.514 132.634 488.553 135.197 489.341 137.089L490.264 136.704ZM499.462 120.063C496.722 125.603 493.367 131.116 489.398 136.603L490.208 137.189C494.207 131.661 497.591 126.1 500.358 120.507L499.462 120.063ZM554.218 142.786C557.656 139.318 559.994 136.395 561.187 134.023C562.373 131.668 562.51 129.667 561.165 128.286L560.449 128.984C561.33 129.888 561.423 131.329 560.294 133.574C559.173 135.801 556.926 138.635 553.508 142.081L554.218 142.786ZM532.187 161.205C541.515 154.342 548.862 148.201 554.219 142.785L553.508 142.082C548.201 147.447 540.899 153.553 531.594 160.4L532.187 161.205ZM544.623 135.675C536.898 143.871 532.466 152.227 531.395 160.74L532.387 160.865C533.425 152.621 537.724 144.453 545.35 136.36L544.623 135.675ZM553.903 128.275C551.019 129.717 547.927 132.194 544.624 135.673L545.349 136.362C548.609 132.927 551.61 130.54 554.351 129.17L553.903 128.275ZM561.16 128.281C559.513 126.634 556.998 126.787 553.91 128.272L554.344 129.173C557.349 127.728 559.288 127.823 560.453 128.988L561.16 128.281ZM250.278 122.198C253.275 121.708 257.522 120.684 260.576 119.171C262.092 118.42 263.393 117.511 264.061 116.421C264.402 115.864 264.584 115.25 264.531 114.591C264.478 113.935 264.197 113.283 263.695 112.638L262.906 113.252C263.319 113.782 263.501 114.254 263.534 114.671C263.567 115.085 263.458 115.49 263.208 115.899C262.693 116.74 261.605 117.545 260.132 118.275C257.208 119.723 253.074 120.728 250.117 121.211L250.278 122.198ZM249.592 121.704C249.643 122.008 249.931 122.255 250.278 122.198L250.117 121.211C250.356 121.172 250.545 121.343 250.578 121.538L249.592 121.704ZM255.015 105.983C253.344 105.586 251.98 105.677 250.935 106.313C249.888 106.952 249.272 108.071 248.946 109.484C248.302 112.282 248.725 116.547 249.592 121.704L250.578 121.538C249.706 116.354 249.328 112.283 249.921 109.709C250.214 108.436 250.726 107.612 251.455 107.167C252.187 106.722 253.247 106.591 254.784 106.956L255.015 105.983ZM257.085 111.158C257.328 109.892 257.414 108.755 257.135 107.852C256.992 107.388 256.751 106.981 256.386 106.656C256.024 106.333 255.564 106.113 255.015 105.983L254.784 106.956C255.209 107.056 255.508 107.213 255.72 107.402C255.931 107.59 256.082 107.833 256.179 108.147C256.381 108.8 256.341 109.729 256.103 110.969L257.085 111.158ZM256.517 110.878C256.621 110.75 256.752 110.732 256.8 110.73C256.853 110.727 256.886 110.739 256.904 110.746C256.92 110.752 256.957 110.77 256.997 110.815C257.037 110.86 257.119 110.983 257.085 111.158L256.103 110.969C256.058 111.203 256.164 111.383 256.248 111.478C256.333 111.574 256.435 111.634 256.522 111.67C256.61 111.706 256.721 111.734 256.842 111.729C256.959 111.724 257.152 111.683 257.293 111.509L256.517 110.878ZM263.695 112.638C262.124 110.619 260.69 109.719 259.415 109.584C258.116 109.447 257.134 110.118 256.517 110.878L257.293 111.509C257.775 110.916 258.454 110.488 259.31 110.579C260.19 110.671 261.405 111.323 262.906 113.252L263.695 112.638Z" fill="#F2F2F2"/>
</svg>
